<?xml version="1.0" encoding="UTF-8" standalone="no"?>
<!-- Created with Inkscape (http://www.inkscape.org/) -->

<svg
   width="145mm"
   height="145mm"
   viewBox="0 0 145 145"
   version="1.1"
   id="svg1"
   xml:space="preserve"
   inkscape:version="1.4 (86a8ad7, 2024-10-11)"
   sodipodi:docname="Bier.svg"
   xmlns:inkscape="http://www.inkscape.org/namespaces/inkscape"
   xmlns:sodipodi="http://sodipodi.sourceforge.net/DTD/sodipodi-0.dtd"
   xmlns="http://www.w3.org/2000/svg"
   xmlns:svg="http://www.w3.org/2000/svg"><sodipodi:namedview
     id="namedview1"
     pagecolor="#ffffff"
     bordercolor="#000000"
     borderopacity="0.25"
     inkscape:showpageshadow="2"
     inkscape:pageopacity="0.0"
     inkscape:pagecheckerboard="0"
     inkscape:deskcolor="#d1d1d1"
     inkscape:document-units="mm"
     inkscape:zoom="0.32000352"
     inkscape:cx="-123.43614"
     inkscape:cy="174.99807"
     inkscape:window-width="1280"
     inkscape:window-height="730"
     inkscape:window-x="-6"
     inkscape:window-y="-6"
     inkscape:window-maximized="1"
     inkscape:current-layer="layer1" /><defs
     id="defs1" /><g
     inkscape:label="Ebene 1"
     inkscape:groupmode="layer"
     id="layer1"
     transform="translate(-28.781134,-71.893806)"
     style="display:inline"><path
       style="fill:#3e2311;fill-opacity:1;stroke-width:0.674308"
       d="m 81.605877,208.55493 c -3.842711,-0.68973 -23.504457,-4.52419 -27.854685,-5.43226 -4.965238,-1.03646 -6.183648,-1.3838 -7.443059,-2.12187 -1.738186,-1.01863 -3.242667,-3.22839 -3.700934,-5.43586 -0.302427,-1.45678 -0.106939,-3.92068 0.616728,-7.77325 0.350208,-1.86439 0.659367,-3.5832 0.68702,-3.8196 0.04709,-0.40253 -0.04588,-0.45098 -1.466213,-0.76392 -4.463818,-0.98349 -6.425833,-1.90412 -8.474507,-3.97643 -1.606712,-1.62527 -2.398582,-2.85068 -3.076664,-4.76115 -0.380293,-1.07145 -0.477448,-1.71268 -0.536168,-3.5387 -0.06866,-2.13508 -0.02151,-2.50393 1.106157,-8.65293 2.033315,-11.08743 2.300148,-12.28049 3.113798,-13.9225 1.66488,-3.35987 5.430238,-5.59929 9.433259,-5.61037 0.615917,-0.002 2.34204,0.23596 3.835831,0.52814 1.493788,0.29217 2.910044,0.5531 3.147233,0.57983 0.467336,0.0527 0.46096,0.0786 1.556387,-6.33041 l 0.297457,-1.74033 -1.064514,-1.11424 c -2.736703,-2.86453 -4.124845,-7.47655 -3.371371,-11.20119 1.299442,-6.4235 6.358084,-10.70396 13.187586,-11.15891 1.559518,-0.10394 2.534196,-0.005 4.796625,0.48916 l 1.025337,0.22371 0.669564,-0.63688 c 1.669937,-1.58842 4.999707,-3.36197 7.181555,-3.82514 1.830395,-0.38856 5.284764,-0.25275 7.131544,0.28036 2.937418,0.84797 5.817608,2.83878 7.371645,5.09534 0.850629,1.23516 0.860142,1.24217 1.962517,1.44686 3.399812,0.63126 6.818088,2.45736 9.111435,4.86746 l 1.04566,1.0989 1.00606,-1.05345 c 2.37837,-2.49044 5.53004,-4.17979 8.85612,-4.74707 l 1.24888,-0.213 0.70324,-1.0596 c 1.70135,-2.56348 4.87986,-4.77713 8.10247,-5.64293 1.75305,-0.47099 5.08319,-0.51224 6.84821,-0.0849 2.41627,0.5851 4.95291,1.94652 6.73807,3.61634 l 0.86891,0.81275 1.57193,-0.39414 c 1.37161,-0.34389 1.87889,-0.3816 3.98049,-0.2958 2.72716,0.11139 4.31734,0.48275 6.35588,1.48451 3.30054,1.62189 5.94378,4.94162 7.01274,8.80748 0.45484,1.6449 0.50457,4.74132 0.10192,6.34428 -0.46459,1.84941 -1.80018,4.26531 -3.07104,5.55507 l -1.13671,1.15363 0.27709,1.63759 c 0.15239,0.90067 0.49131,2.77954 0.75312,4.17526 0.44397,2.36667 0.50093,2.53183 0.84528,2.45084 2.34036,-0.55043 5.9306,-1.15268 6.87159,-1.15268 2.49034,0 5.43544,1.21846 7.26954,3.00758 2.04321,1.99311 2.45719,3.02814 3.64458,9.1122 0.48964,2.5089 1.30667,6.60888 1.81562,9.11109 0.79786,3.92256 0.9236,4.8199 0.91256,6.51199 -0.0237,3.62396 -1.07149,6.08026 -3.73086,8.74594 -2.27499,2.28039 -3.1726,2.71132 -7.80547,3.7474 -1.15298,0.25784 -2.09631,0.54425 -2.09631,0.63648 0,0.31746 0.70383,4.53712 1.15435,6.92062 0.51898,2.74569 0.54905,3.59817 0.18184,5.15568 -0.36332,1.54103 -0.8551,2.43295 -2.00788,3.64149 -1.57447,1.65068 -3.01945,2.31213 -6.37555,2.91841 -0.88313,0.15954 -3.49238,0.69033 -5.79834,1.17954 -11.51302,2.44244 -26.3277,5.32353 -27.37392,5.32353 -3.26458,0 -5.95689,-1.41286 -7.6325,-4.00535 -0.86367,-1.33627 -1.28241,-2.71032 -1.91431,-6.28162 -0.27504,-1.55441 -1.02849,-5.47561 -1.67432,-8.71377 -2.08668,-10.46236 -6.12273,-31.61661 -6.22918,-32.64916 -0.0394,-0.38194 -0.12079,-0.17756 -0.28425,0.71365 -0.39819,2.17086 -7.680572,38.2083 -8.415754,41.64599 -0.498436,2.33067 -0.88514,3.67101 -1.328458,4.60451 -1.071503,2.25629 -3.144615,3.96044 -5.47006,4.49654 -0.942633,0.21731 -3.828121,0.21115 -5.064763,-0.0107 z m 2.354249,-14.95704 c 0.313577,-0.1912 0.696385,-0.54031 0.850685,-0.77579 0.268319,-0.40952 1.191494,-4.69665 3.138605,-14.57538 0.49319,-2.50221 1.170618,-5.87416 1.505398,-7.49325 0.334778,-1.61907 0.730923,-3.58605 0.880322,-4.37105 0.149397,-0.78501 0.756231,-3.7957 1.348518,-6.69041 0.629927,-3.07867 1.03376,-5.46397 0.972979,-5.74705 -0.226772,-1.05615 -2.077097,-1.54923 -3.420814,-0.91159 -0.856898,0.40662 -1.173509,1.19629 -1.739887,4.3395 -0.25636,1.42272 -1.300781,6.76157 -2.320936,11.86411 -2.866128,14.33562 -4.372031,22.11657 -4.371299,22.58634 0.001,0.64818 0.649175,1.5777 1.296324,1.85903 0.786621,0.34197 1.190846,0.32361 1.860105,-0.0844 z m 37.407104,0.10298 c 0.89428,-0.37365 1.3628,-1.0811 1.35953,-2.05279 -0.001,-0.45287 -0.27489,-2.26852 -0.60746,-4.03478 -0.33256,-1.76627 -0.89644,-4.77695 -1.25305,-6.6904 -0.72602,-3.89561 -2.78114,-14.766 -3.8452,-20.33881 -0.38408,-2.01159 -0.78461,-4.17929 -0.89007,-4.81709 -0.36961,-2.23533 -1.00046,-3.03299 -2.39871,-3.03299 -1.06618,0 -1.99858,0.48264 -2.34574,1.21422 -0.34148,0.71963 -0.50738,-0.25955 3.24013,19.1246 3.91746,20.26322 3.83651,19.9353 5.07662,20.56154 0.74538,0.37643 0.90679,0.38287 1.66395,0.0665 z m -50.608462,-2.60135 c 0.314145,-0.19154 0.690325,-0.57868 0.835955,-0.86029 0.240952,-0.46595 1.622189,-7.34633 5.362311,-26.71137 0.739121,-3.82691 1.554296,-8.0309 1.811501,-9.34219 0.525806,-2.68069 0.482268,-2.99087 -0.504219,-3.59234 -0.819858,-0.49986 -2.245696,-0.48526 -2.900371,0.0297 -0.708642,0.5574 -0.928346,1.22238 -1.508787,4.56655 -0.675721,3.89312 -2.4392,13.51979 -2.769395,15.11787 -0.225311,1.09046 -2.127306,10.97816 -3.135182,16.29853 -0.533476,2.81611 -0.492237,3.31553 0.342711,4.15047 0.805304,0.80531 1.539759,0.9075 2.465476,0.34306 z m 64.342122,-0.18481 c 1.07149,-0.94078 1.12187,-1.28458 0.59597,-4.06651 -0.25433,-1.34547 -0.99344,-5.41683 -1.64246,-9.04749 -0.64901,-3.63067 -1.5718,-8.6886 -2.05064,-11.23987 -0.47883,-2.55128 -1.15438,-6.20423 -1.50122,-8.11769 -0.80773,-4.45609 -1.28521,-6.68159 -1.5328,-7.14422 -0.5537,-1.0346 -2.32912,-1.37839 -3.3981,-0.65801 -0.80101,0.53978 -0.9982,1.26863 -0.72644,2.68494 0.11636,0.60667 0.6504,3.47144 1.18666,6.36617 0.53627,2.8947 1.37133,7.35052 1.8557,9.90179 0.48439,2.55127 1.29213,6.84651 1.795,9.54497 2.08703,11.19908 2.13297,11.3764 3.10044,11.96633 0.82903,0.50551 1.59715,0.44241 2.31789,-0.19041 z m -77.722923,-2.13454 c 0.314145,-0.19153 0.70462,-0.60631 0.867722,-0.92172 0.163101,-0.3154 0.8445,-3.48159 1.514218,-7.03597 0.66972,-3.55438 1.42175,-7.49475 1.671179,-8.75639 0.792799,-4.01004 2.543313,-13.19561 3.424407,-17.96908 0.778055,-4.21524 0.828973,-4.65407 0.589519,-5.08068 -0.67035,-1.19431 -2.473697,-1.66835 -3.443813,-0.90526 -0.754619,0.59358 -0.961085,1.19084 -1.5465,4.47365 -0.303365,1.70118 -0.779436,4.37761 -1.057936,5.94763 -0.278499,1.57 -0.880353,4.86168 -1.337452,7.31483 -0.4571,2.45314 -1.259022,6.82867 -1.782049,9.72338 -0.523028,2.89472 -1.210103,6.6681 -1.526833,8.38531 -0.545089,2.95528 -0.560931,3.15774 -0.296351,3.78731 0.307753,0.73231 1.206475,1.38526 1.906689,1.38526 0.245315,0 0.703056,-0.15673 1.0172,-0.34827 z m 91.157503,-0.2413 c 0.99939,-0.91586 0.98373,-1.40081 -0.26907,-8.32963 -0.59437,-3.28722 -1.2893,-7.22024 -1.5443,-8.74006 -0.54266,-3.2343 -3.72197,-20.71104 -4.0165,-22.07879 -0.28375,-1.31762 -0.81575,-1.71094 -2.18199,-1.61315 -1.14138,0.0817 -1.85521,0.49109 -2.24574,1.28803 -0.30418,0.62071 -0.20155,1.35883 1.31619,9.46708 0.62452,3.33627 1.26459,6.82866 1.42241,7.76086 0.34939,2.06375 1.5715,8.50822 1.96232,10.34781 0.15636,0.73595 0.63541,3.38534 1.06456,5.88756 0.85289,4.97287 0.93044,5.26424 1.54843,5.81859 1.10226,0.98873 2.0095,1.04781 2.94369,0.1917 z M 45.370246,176.68562 c 0.155592,-0.7688 2.851891,-15.33508 3.773084,-20.38341 0.45659,-2.50222 0.871606,-4.88045 0.922257,-5.28501 l 0.09209,-0.73552 -2.116967,-0.37693 c -4.125075,-0.73451 -4.707109,-0.77096 -5.789427,-0.36258 -1.277686,0.48208 -1.878036,1.07883 -2.110651,2.09796 -0.103718,0.45444 -0.59612,3.03408 -1.094214,5.73255 -0.498094,2.69846 -1.26182,6.80965 -1.697166,9.13599 -0.882286,4.71461 -0.877543,5.22252 0.06516,6.97785 0.899542,1.67497 2.373649,2.56613 5.336463,3.22614 2.507891,0.55866 2.500822,0.55873 2.619369,-0.0271 z m 115.806794,-0.06 c 1.03556,-0.21745 2.21921,-0.60515 2.82114,-0.92403 1.27192,-0.67382 2.49235,-1.99453 2.87159,-3.10753 0.51839,-1.5214 0.62241,-0.79997 -2.18231,-15.13416 -0.67221,-3.43556 -1.3125,-6.41515 -1.42284,-6.62135 -0.35214,-0.65796 -1.43362,-1.47256 -2.12838,-1.60312 -0.67104,-0.12612 -1.38051,-0.0345 -5.17771,0.6695 -1.95559,0.36251 -2.00712,0.38414 -2.00697,0.84236 1.5e-4,0.44832 1.48213,9.1087 2.40075,14.02951 0.23815,1.27564 0.80069,4.40674 1.25012,6.95801 1.05445,5.98605 0.91863,5.46384 1.39308,5.35589 0.21858,-0.0497 1.20027,-0.25903 2.18153,-0.46508 z M 98.144687,146.29307 c 2.447953,-0.50893 4.699853,-2.32594 5.884083,-4.74776 0.54446,-1.11345 0.59198,-1.34716 0.59078,-2.90575 -0.001,-1.53482 -0.0552,-1.80903 -0.57245,-2.90342 -0.91777,-1.94197 -2.84796,-3.57194 -5.090784,-4.299 -0.202322,-0.0656 -0.312218,-0.28335 -0.312218,-0.61868 0,-1.0192 -0.556886,-3.70093 -0.928739,-4.47242 -0.600825,-1.24652 -2.465048,-3.09234 -3.867446,-3.82929 -1.530105,-0.80405 -2.815278,-1.13665 -5.151742,-1.33328 -1.999095,-0.16824 -2.433098,-0.38042 -2.632184,-1.28685 -0.169657,-0.77244 -1.352508,-2.49356 -2.266835,-3.29839 -4.053915,-3.5684 -9.483556,-2.74973 -12.758294,1.92368 -0.914016,1.30439 -1.008523,1.38454 -1.632725,1.38454 -0.364405,0 -1.622208,-0.33509 -2.795117,-0.74465 -2.02789,-0.7081 -2.233269,-0.74455 -4.184287,-0.74252 -1.637847,0.001 -2.25805,0.0778 -3.074564,0.37718 -2.07289,0.76007 -3.650586,2.2786 -4.442991,4.2764 -0.314579,0.79311 -0.405453,1.37072 -0.400039,2.54272 0.01237,2.6757 1.093834,4.58399 3.49955,6.17512 2.655348,1.75623 5.74858,2.37712 8.892215,1.78486 2.672346,-0.50345 2.618331,-0.5209 3.807471,1.22971 3.05455,4.49679 7.335582,6.03954 12.146382,4.37718 2.403406,-0.83048 2.451014,-0.81263 3.785751,1.41963 1.828633,3.05828 3.944418,4.76146 6.865672,5.52678 1.483021,0.38853 3.257419,0.45135 4.638511,0.16421 z m 12.988153,-0.39251 c 2.89301,-1.10118 4.72618,-2.6462 6.14809,-5.18168 0.33869,-0.60392 0.84012,-1.36019 1.11429,-1.68055 l 0.49849,-0.5825 1.87331,0.64435 c 3.23123,1.1114 5.36083,1.03157 8.0227,-0.30073 1.66111,-0.8314 3.50671,-2.66884 4.44054,-4.42089 0.31936,-0.59918 0.7184,-1.16314 0.88675,-1.25323 0.2043,-0.10938 1.01691,-0.0152 2.4432,0.28334 3.12373,0.65361 5.5512,0.38986 8.11384,-0.8816 1.62938,-0.80842 3.74466,-2.92789 4.23378,-4.24217 1.02356,-2.75038 0.47403,-5.56973 -1.49615,-7.676 -1.23995,-1.32563 -2.73547,-2.02369 -4.93104,-2.30166 -1.57456,-0.19935 -3.28635,0.0423 -5.65666,0.79844 -2.82768,0.9021 -3.00866,0.89209 -3.76552,-0.20797 -1.41537,-2.05716 -3.5098,-3.66158 -5.54615,-4.24859 -1.08257,-0.31206 -3.0737,-0.40155 -4.08167,-0.18343 -2.19827,0.47567 -4.34022,2.47036 -5.33726,4.97034 -0.55735,1.39749 -0.99244,1.64445 -3.18335,1.8069 -4.5582,0.33795 -7.97568,2.66743 -9.1254,6.22017 l -0.2226,0.68784 0.9254,0.80953 c 1.95284,1.70829 3.46581,4.18228 4.10914,6.71926 0.78538,3.09709 0.30561,6.38541 -1.54462,10.58689 -0.15924,0.36162 0.45141,0.25419 2.08089,-0.36606 z M 88.096334,105.69071 C 87.839176,105.53111 86.9064,104.30891 86.0235,102.9747 83.32106,98.890882 78.732082,91.829393 78.512657,91.417055 78.398604,91.202724 78.30528,90.626819 78.30528,90.137266 c 0,-1.018426 0.504226,-1.784001 1.42663,-2.166073 0.70353,-0.291412 2.049247,-0.1369 2.533111,0.290848 0.36418,0.321943 2.871097,4.064332 7.334248,10.948761 2.395765,3.695468 2.628209,4.359858 1.919964,5.487748 -0.741285,1.18052 -2.362351,1.6504 -3.422899,0.99216 z m 25.190116,-0.0128 c -0.93936,-0.47899 -1.35076,-1.16212 -1.35076,-2.24294 0,-0.88912 0.10314,-1.08282 2.76537,-5.193184 1.52095,-2.348286 3.53407,-5.47939 4.47361,-6.958016 1.9152,-3.014088 2.42346,-3.49164 3.71506,-3.49059 1.04256,8.76e-4 1.82469,0.469801 2.23872,1.342314 0.61693,1.300071 0.40678,1.800385 -2.87444,6.843341 -1.63544,2.513527 -3.69337,5.677395 -4.57318,7.030815 -1.01556,1.56223 -1.78325,2.5557 -2.10245,2.72075 -0.6724,0.34773 -1.54632,0.32771 -2.29193,-0.0524 z m -12.62554,-3.7831 c -1.268598,-0.77352 -1.213964,-0.29943 -1.213964,-10.534091 0,-8.570681 0.02215,-9.237639 0.321912,-9.695138 1.003532,-1.531567 3.287492,-1.549291 4.224752,-0.03279 0.34838,0.56369 0.35961,0.868781 0.35896,9.748992 -6.4e-4,8.777367 -0.0155,9.191377 -0.34893,9.738267 -0.6693,1.0977 -2.22264,1.45772 -3.34273,0.77476 z"
       id="path3" /></g></svg>
