<?xml version="1.0" encoding="UTF-8" standalone="no"?>
<!-- Created with Inkscape (http://www.inkscape.org/) -->

<svg
   width="145mm"
   height="145mm"
   viewBox="0 0 145 145"
   version="1.1"
   id="svg1"
   xml:space="preserve"
   inkscape:version="1.4 (86a8ad7, 2024-10-11)"
   sodipodi:docname="Bier.svg"
   xmlns:inkscape="http://www.inkscape.org/namespaces/inkscape"
   xmlns:sodipodi="http://sodipodi.sourceforge.net/DTD/sodipodi-0.dtd"
   xmlns="http://www.w3.org/2000/svg"
   xmlns:svg="http://www.w3.org/2000/svg"><sodipodi:namedview
     id="namedview1"
     pagecolor="#ffffff"
     bordercolor="#000000"
     borderopacity="0.25"
     inkscape:showpageshadow="2"
     inkscape:pageopacity="0.0"
     inkscape:pagecheckerboard="0"
     inkscape:deskcolor="#d1d1d1"
     inkscape:document-units="mm"
     inkscape:zoom="0.45255332"
     inkscape:cx="67.395373"
     inkscape:cy="205.50065"
     inkscape:window-width="1280"
     inkscape:window-height="730"
     inkscape:window-x="-6"
     inkscape:window-y="-6"
     inkscape:window-maximized="1"
     inkscape:current-layer="layer1" /><defs
     id="defs1" /><g
     inkscape:label="Ebene 1"
     inkscape:groupmode="layer"
     id="layer1"
     transform="translate(-28.781134,-71.893806)"
     style="display:inline"><path
       style="fill:#3e2311;stroke-width:0.742579;fill-opacity:1"
       d="m 119.19027,211.95739 c -0.9967,-0.38869 -1.96953,-1.12229 -2.77648,-2.0937 -1.39533,-1.67977 -1.94876,-3.34256 -3.33696,-10.02604 -4.01495,-19.32991 -8.28421,-38.96906 -9.09353,-41.83143 l -0.93414,-3.30384 -1.85324,-1.35157 c -1.01928,-0.74336 -1.963882,-1.35156 -2.099106,-1.35156 -0.692292,0 -1.022909,0.93548 -3.593226,10.16699 -1.442208,5.17983 -3.041332,11.10344 -3.553607,13.16361 -3.101447,12.47269 -5.849282,22.96819 -6.304327,24.07972 -0.744425,1.81839 -1.430336,2.70795 -2.714244,3.52012 -1.706007,1.07917 -2.798678,1.10401 -5.401442,0.12275 -1.140699,-0.43003 -5.117365,-1.87321 -8.837036,-3.20706 -3.71967,-1.33384 -9.035417,-3.26369 -11.812771,-4.28855 -2.777354,-1.02484 -6.466196,-2.3815 -8.197426,-3.01479 -1.73123,-0.63328 -3.589226,-1.40781 -4.128879,-1.72115 -1.907993,-1.1079 -3.062529,-3.07596 -3.226474,-5.49995 -0.07828,-1.1574 0.04047,-1.86028 0.935655,-5.53832 0.768087,-3.15583 0.980633,-4.31178 0.847217,-4.60764 -0.106791,-0.23682 -0.990303,-0.75474 -2.206761,-1.29358 -3.094997,-1.37102 -4.86572,-2.6349 -6.667122,-4.75878 -1.789945,-2.11037 -2.673915,-3.99455 -3.133857,-6.67979 -0.528583,-3.08597 -0.600297,-2.57942 2.311758,-16.32974 2.379676,-11.23648 2.662736,-12.13336 4.528191,-14.34732 0.806571,-0.95729 1.575748,-1.60063 2.713962,-2.27 l 1.588381,-0.93413 h 2.087596 c 1.932255,0 2.373968,0.0863 5.936153,1.15882 4.192075,1.26223 4.055866,1.26598 4.280635,-0.11762 0.08306,-0.51132 -0.0043,-0.87425 -0.366416,-1.52384 -0.864071,-1.54963 -1.222705,-2.99926 -1.317482,-5.32536 -0.173919,-4.26846 0.937114,-7.69608 3.461903,-10.68025 3.345672,-3.95443 7.998959,-5.33975 12.838568,-3.82217 2.69749,0.84585 2.581106,0.84593 4.000962,-0.004 0.705931,-0.42192 1.996739,-1.02338 2.868463,-1.33658 1.344702,-0.48312 1.926674,-0.57051 3.8393,-0.5764 2.722601,-0.008 4.062269,0.34708 6.492515,1.72294 1.492066,0.8447 1.932926,1.23254 3.4141,3.00344 1.522388,1.82017 1.828867,2.08519 2.921691,2.52632 3.540784,1.4293 6.467993,4.1852 8.258486,7.77518 l 0.96749,1.93983 1.17111,-1.50124 c 2.21387,-2.83791 4.74135,-4.69542 7.54677,-5.54628 1.42502,-0.4322 1.50758,-0.4934 2.97574,-2.20606 2.56141,-2.98796 4.99466,-4.18163 8.90432,-4.36814 3.09699,-0.14774 4.76739,0.30172 7.49717,2.01733 l 1.93019,1.21308 1.68866,-0.6298 c 1.52117,-0.56734 1.93016,-0.62971 4.12336,-0.62877 2.76798,0.001 3.65053,0.23799 6.11217,1.64002 1.20183,0.68449 1.81643,1.22108 2.98597,2.60701 1.69185,2.00488 2.61169,3.88412 3.17055,6.47746 0.68553,3.18122 0.39996,6.32068 -0.82373,9.05572 -0.71807,1.60494 -0.72901,1.74785 -0.28813,3.76339 0.26947,1.23186 0.38899,1.49072 0.67219,1.45567 0.18945,-0.0235 2.12989,-0.53946 4.31209,-1.14671 3.59961,-1.00169 4.09662,-1.09165 5.35804,-0.96981 2.82713,0.27309 5.1921,1.55778 6.79363,3.69034 1.66886,2.22225 1.87684,2.99555 4.62513,17.19749 0.55815,2.88422 1.29872,6.5925 1.64573,8.24061 0.7872,3.73893 0.96621,6.76778 0.52986,8.96552 -0.62971,3.17175 -2.45815,6.15537 -4.86171,7.93333 -1.48798,1.10069 -4.89228,3.03586 -6.60625,3.7553 -2.03191,0.8529 -1.99197,0.68939 -1.16192,4.75702 0.5847,2.86535 0.71106,3.86485 0.71106,5.62495 0,1.78857 -0.0642,2.28116 -0.39051,2.99658 -0.44699,0.98003 -1.4677,2.17846 -2.4437,2.86916 -0.41357,0.29271 -4.17556,1.52693 -9.82894,3.22471 -5.03741,1.51277 -11.47188,3.47518 -14.29883,4.3609 -11.92038,3.73484 -13.75731,4.20753 -14.78852,3.80539 z m 6.72942,-16.16829 c 0.94281,-1.037 1.19019,0.54511 -3.24687,-20.76471 -2.65158,-12.73473 -2.65652,-12.75112 -3.84083,-12.75112 -0.78778,0 -1.72801,0.51614 -2.07058,1.13663 -0.28061,0.50829 -0.15436,1.18104 3.046,16.23158 2.99942,14.10566 3.38616,15.75023 3.80555,16.18289 0.64518,0.66561 1.68396,0.64972 2.30673,-0.0352 z m 12.04062,-3.31943 c 0.49646,-0.58923 0.6066,-1.01214 0.53825,-2.06694 -0.0159,-0.24486 -1.43261,-7.15783 -3.1483,-15.36218 -3.49203,-16.69866 -3.27356,-15.97792 -4.84339,-15.97792 -0.73678,0 -0.97205,0.10421 -1.41134,0.62568 -0.28995,0.34411 -0.52717,0.77413 -0.52717,0.95563 0,0.62432 6.48116,31.15138 6.70337,31.57367 0.55042,1.04602 1.91204,1.17368 2.68858,0.25206 z m 11.63658,-4.16888 c 0.3981,-0.47249 0.61319,-0.93287 0.61319,-1.31255 0,-0.32164 -0.89708,-4.78602 -1.99351,-9.92086 -1.09642,-5.13482 -2.52801,-11.84031 -3.18128,-14.90114 -1.34167,-6.28608 -1.4684,-6.58665 -2.77722,-6.58665 -0.6424,0 -0.85837,0.11619 -1.2957,0.6971 -0.42438,0.56372 -0.51044,0.84575 -0.44969,1.47397 0.0413,0.42729 1.47803,7.37473 3.19273,15.43876 2.90257,13.65041 3.15379,14.70249 3.64174,15.25051 0.74094,0.83213 1.46932,0.78709 2.24974,-0.13914 z m -71.521249,-1.69581 c 0.290234,-0.35789 1.171259,-3.46094 3.14492,-11.07668 1.507955,-5.81872 3.369388,-12.81423 4.136518,-15.54559 0.893746,-3.18215 1.374245,-5.21725 1.337614,-5.66527 -0.07426,-0.90825 -0.985589,-1.67606 -1.989345,-1.67606 -1.390568,0 -1.304142,-0.18429 -3.011559,6.42125 -3.691856,14.28279 -6.508341,25.59907 -6.508341,26.14965 0,1.58106 1.968286,2.52952 2.890193,1.3927 z M 66.63881,182.58511 c 0.457653,-0.51026 0.478365,-0.58412 3.415597,-12.17824 3.372948,-13.31403 4.950694,-19.78113 4.950694,-20.29271 0,-1.54952 -1.856417,-2.57168 -2.881475,-1.58655 -0.310858,0.29874 -1.269993,3.75664 -4.437904,15.99965 -2.447301,9.45806 -4.039991,15.95621 -4.037922,16.47469 0.0077,1.94022 1.813518,2.89602 2.99101,1.58316 z m -12.014722,-3.72293 c 0.181584,-0.0684 0.447578,-0.33732 0.591097,-0.5976 0.143518,-0.2603 1.861353,-6.734 3.817414,-14.38599 1.95606,-7.65201 3.762759,-14.70783 4.014886,-15.6796 0.398811,-1.53716 0.428934,-1.85133 0.231687,-2.41652 -0.29829,-0.85466 -0.832031,-1.2747 -1.619797,-1.2747 -0.858343,0 -1.355268,0.45523 -1.693544,1.55145 -0.241809,0.7836 -2.19773,8.41808 -6.76836,26.41867 -0.603088,2.37515 -1.096524,4.46555 -1.096524,4.64533 0,0.66966 0.459022,1.48698 0.981552,1.74773 0.519676,0.25934 0.834597,0.25753 1.541589,-0.009 z m 106.146432,-1.94435 c 3.81666,-1.95303 5.33085,-3.28125 5.86563,-5.14522 0.43259,-1.50778 0.30088,-3.99469 -0.35008,-6.60978 -0.57644,-2.31574 -1.53634,-7.38616 -2.91857,-15.41663 -0.76636,-4.45243 -1.04677,-5.57529 -1.63862,-6.56177 -0.50634,-0.84394 -1.64325,-1.44857 -2.73497,-1.45449 -0.71348,-0.005 -3.53534,0.73782 -7.39415,1.94353 -0.42035,0.13132 -0.75161,0.39542 -0.85875,0.68459 -0.13568,0.36625 0.60389,4.12517 3.33091,16.92945 1.9837,9.31418 3.60905,16.53673 3.7443,16.6385 0.38236,0.28771 0.50098,0.24723 2.9543,-1.00818 z M 44.966308,167.80531 c 0.364144,-0.1969 0.546553,-0.59897 0.898249,-1.97989 0.40913,-1.60641 2.562749,-10.36249 5.409791,-21.99482 0.653013,-2.66805 1.187295,-5.05433 1.187295,-5.30284 0,-0.5612 -0.05901,-0.58779 -4.070462,-1.83406 -4.369732,-1.35758 -5.380883,-1.24599 -6.507749,0.71819 -0.251728,0.43877 -0.876154,3.03241 -1.773091,7.36478 -0.761488,3.67811 -1.755601,8.13226 -2.209138,9.89812 -0.685691,2.66972 -0.827531,3.51712 -0.841947,5.02999 -0.01561,1.6368 0.03627,1.93421 0.516934,2.96412 0.946285,2.02758 2.870288,3.6822 5.644188,4.85393 0.668687,0.28247 1.232264,0.51718 1.252396,0.52156 0.02013,0.005 0.24222,-0.10314 0.493534,-0.23908 z m 67.633782,-17.63208 c 3.23967,-1.0015 5.27648,-3.46399 6.43231,-7.77665 0.32353,-1.20715 0.52164,-1.62088 0.84632,-1.76738 0.23315,-0.10527 0.49704,-0.13765 0.58642,-0.072 0.36162,0.26524 4.43948,0.0952 5.48817,-0.22888 2.72665,-0.84262 5.51321,-3.10588 6.77227,-5.50055 0.88218,-1.67785 0.86179,-1.66761 3.0382,-1.52678 3.11674,0.20165 5.2741,-0.62793 7.17152,-2.75771 1.31133,-1.47188 1.9329,-3.02488 1.94194,-4.85191 0.0175,-3.52855 -2.47044,-6.53143 -6.06126,-7.31592 -1.60493,-0.35061 -3.04791,-0.0573 -5.27548,1.0722 -2.47149,1.25321 -2.93709,1.1808 -4.81329,-0.74868 -0.53373,-0.54888 -1.49793,-1.29939 -2.14268,-1.6678 -1.08682,-0.62102 -1.31028,-0.66952 -3.06592,-0.66522 -2.7247,0.006 -4.23562,0.60874 -5.59781,2.23062 -0.66398,0.79056 -1.07434,1.49332 -1.22371,2.09561 -0.12904,0.52029 -0.39485,1.0186 -0.62417,1.17015 -0.22653,0.14969 -1.18006,0.2829 -2.2029,0.30774 -2.94517,0.0714 -4.93182,1.04211 -6.75686,3.30123 -0.95831,1.18623 -1.87295,3.20505 -2.18954,4.83285 -0.20292,1.04333 -0.19132,1.10241 0.5217,2.65889 2.28002,4.97722 1.9156,9.87272 -1.04974,14.10166 l -0.91876,1.31027 1.2157,0.6542 c 2.61786,1.40878 5.63795,1.84573 7.90757,1.14413 z m -15.663284,-3.42866 c 2.195545,-1.03106 3.431084,-2.33132 4.443844,-4.67667 0.47897,-1.10918 0.56321,-1.53663 0.5593,-2.83811 -0.008,-2.52861 -0.95827,-4.31181 -3.754911,-7.043 l -0.890581,-0.86975 0.241271,-1.19363 c 0.475436,-2.35212 -0.557505,-5.76435 -2.424407,-8.00886 -1.718396,-2.06597 -3.762451,-3.07779 -6.217715,-3.07779 -0.82415,0 -1.492894,-0.10729 -1.668229,-0.26754 -0.160959,-0.14715 -0.516709,-0.83671 -0.790555,-1.53233 -0.273846,-0.69564 -0.76905,-1.5866 -1.100453,-1.97992 -1.615668,-1.91753 -4.967651,-2.89171 -7.353533,-2.13715 -1.227748,0.38827 -1.921692,0.83643 -3.572966,2.30747 -1.767373,1.57445 -2.226562,1.61952 -4.242915,0.4163 -3.232153,-1.92871 -5.486461,-2.11737 -8.081209,-0.6763 -2.107654,1.17057 -3.422837,3.42393 -3.61068,6.18631 -0.329379,4.84382 3.525212,8.13201 10.033164,8.55887 2.551811,0.1674 2.174602,-0.14475 3.275084,2.71008 0.772958,2.00518 2.072762,3.53058 3.873036,4.54526 1.862247,1.04961 3.439229,1.17555 6.020759,0.48089 1.798512,-0.48397 1.829871,-0.48514 2.14809,-0.0802 0.177613,0.22604 0.469372,0.89255 0.648353,1.48119 1.371487,4.51042 3.603583,7.14035 6.905805,8.13669 1.583627,0.4778 4.012107,0.28478 5.559448,-0.44183 z m -5.15236,-42.97227 c -0.703566,-0.28583 -0.854384,-0.52609 -5.879368,-9.366231 -1.711345,-3.010662 -3.209577,-5.862294 -3.329403,-6.336962 -0.185224,-0.733723 -0.171895,-0.978012 0.08896,-1.630438 0.568171,-1.421032 1.907993,-1.99751 2.910478,-1.252275 0.362609,0.269558 1.72167,2.471008 3.846556,6.230772 4.622478,8.178995 5.241321,9.383414 5.241321,10.200914 0,0.7877 -0.695867,1.9093 -1.315443,2.12023 -0.818716,0.2787 -0.953491,0.28164 -1.563108,0.0339 z m 20.266804,-0.0227 c -0.7549,-0.39009 -1.33731,-1.32314 -1.33731,-2.14243 0,-0.8345 0.55366,-1.904438 4.93648,-9.539686 3.55968,-6.201281 4.31208,-7.277432 5.08799,-7.277432 1.83886,0 2.80105,2.319088 1.83339,4.418823 -0.22319,0.484278 -2.15066,3.891947 -4.28326,7.572593 -3.09591,5.343192 -3.99445,6.750572 -4.45781,6.982242 -0.71518,0.35756 -1.06562,0.35478 -1.77948,-0.0141 z m -11.00395,-4.490351 -0.61318,-0.727728 v -9.128832 c 0,-9.813423 0.01,-9.92601 0.94084,-10.699886 0.5753,-0.478244 1.8686,-0.427537 2.49002,0.09763 0.91778,0.775609 0.95575,1.243241 0.85911,10.581396 -0.0765,7.39665 -0.12956,8.671555 -0.38487,9.257517 -0.41431,0.950865 -0.97056,1.347658 -1.88926,1.347658 -0.65737,0 -0.89208,-0.121769 -1.40266,-0.727753 z"
       id="path2" /></g></svg>
