<?xml version="1.0" encoding="UTF-8" standalone="no"?>
<!-- Created with Inkscape (http://www.inkscape.org/) -->

<svg
   width="217.6779mm"
   height="188.59917mm"
   viewBox="0 0 217.6779 188.59917"
   version="1.1"
   id="svg1"
   xml:space="preserve"
   inkscape:version="1.4 (86a8ad7, 2024-10-11)"
   sodipodi:docname="cart.svg"
   xmlns:inkscape="http://www.inkscape.org/namespaces/inkscape"
   xmlns:sodipodi="http://sodipodi.sourceforge.net/DTD/sodipodi-0.dtd"
   xmlns="http://www.w3.org/2000/svg"
   xmlns:svg="http://www.w3.org/2000/svg"><sodipodi:namedview
     id="namedview1"
     pagecolor="#ffffff"
     bordercolor="#000000"
     borderopacity="0.25"
     inkscape:showpageshadow="2"
     inkscape:pageopacity="0.0"
     inkscape:pagecheckerboard="0"
     inkscape:deskcolor="#d1d1d1"
     inkscape:document-units="mm"
     inkscape:zoom="0.45255331"
     inkscape:cx="420.94488"
     inkscape:cy="351.33982"
     inkscape:window-width="1280"
     inkscape:window-height="730"
     inkscape:window-x="-6"
     inkscape:window-y="-6"
     inkscape:window-maximized="1"
     inkscape:current-layer="layer1" /><defs
     id="defs1" /><g
     inkscape:label="Ebene 1"
     inkscape:groupmode="layer"
     id="layer1"
     transform="translate(6.5858932,-55.829664)"><path
       style="fill:#000000"
       d="m 77.919793,244.08737 c -5.624821,-0.89094 -10.738467,-3.53414 -14.816666,-7.65859 -3.548499,-3.58875 -5.585327,-7.16255 -7.025397,-12.3267 -0.539447,-1.93448 -0.625593,-2.82242 -0.616069,-6.35 0.01388,-5.14154 0.662672,-7.90969 2.901284,-12.37876 l 1.495749,-2.98604 -1.292625,-1.51187 c -1.912432,-2.23681 -2.619604,-3.2455 -3.526431,-5.03002 -3.655392,-7.19334 -3.024123,-15.23484 1.717756,-21.88185 0.622874,-0.87313 1.501805,-1.9372 1.953179,-2.36461 0.451373,-0.4274 0.820679,-0.93909 0.820679,-1.13707 0,-0.19799 -1.022676,-3.00344 -2.272614,-6.23435 -1.249938,-3.23091 -3.876629,-10.04157 -5.83709,-15.1348 -1.960462,-5.09323 -4.856708,-12.59417 -6.436103,-16.66875 -1.579396,-4.07458 -6.761036,-17.52865 -11.514757,-29.89792 -4.75372,-12.369266 -8.864821,-22.995594 -9.135778,-23.614058 -0.277273,-0.632876 -0.67337,-1.124479 -0.906023,-1.124479 -0.227355,0 -2.466472,-0.537301 -4.975815,-1.194002 C 1.318423,72.109323 -1.5607655,71.321325 -2.4403633,70.875224 -6.9362714,68.595059 -7.9954464,62.271768 -4.5275578,58.414642 c 1.7052258,-1.896622 3.2952685,-2.581693 5.9996832,-2.584969 1.8670786,-0.0023 3.8830317,0.438524 16.1395826,3.528908 7.703302,1.942321 14.487606,3.777755 15.07623,4.078741 1.167502,0.596989 3.023592,2.469359 3.63853,3.670445 0.354671,0.692738 4.014374,9.940547 6.817831,17.228173 l 1.145045,2.976563 79.256886,0.0039 c 86.51905,0.0043 81.14876,-0.08993 83.81085,1.470152 2.44095,1.430491 3.97149,4.584592 3.7049,7.634953 -0.0778,0.890392 -1.39662,5.852792 -2.95833,11.131612 -1.54985,5.23875 -3.71251,12.62062 -4.8059,16.40416 -5.92533,20.50386 -8.40197,28.74069 -9.08336,30.2095 -3.30247,7.11882 -10.73086,12.72851 -18.66335,14.09399 -1.48179,0.25507 -5.44931,0.74078 -28.17813,3.4496 -4.87494,0.581 -13.26885,1.59597 -18.65312,2.2555 -5.38427,0.65953 -11.87318,1.43766 -14.41979,1.72918 -2.54662,0.29153 -7.90443,0.94093 -11.90625,1.44312 -4.001823,0.50219 -12.20302,1.51695 -18.224883,2.25502 -11.836507,1.45074 -12.206837,1.53923 -13.73747,3.28253 -2.042713,2.32652 -1.505912,6.07826 1.071122,7.48616 0.814943,0.44522 3.756795,0.47748 54.968311,0.60269 l 54.10729,0.13229 2.38125,0.74509 c 11.05987,3.46059 18.42435,13.6451 18.37931,25.41717 -0.0514,13.43706 -10.12003,24.92587 -23.56809,26.89239 -3.03431,0.44371 -8.16231,0.20267 -11.05492,-0.51962 -4.11642,-1.02788 -8.57297,-3.48695 -11.98418,-6.6127 -5.55918,-5.09398 -8.8457,-13.30863 -8.31643,-20.78691 0.18923,-2.67381 0.91439,-5.98697 1.7228,-7.87136 l 0.53917,-1.25677 h -21.28956 c -11.70925,0 -21.28955,0.0654 -21.28955,0.14543 0,0.08 0.17591,0.48562 0.39092,0.90139 0.21501,0.41578 0.62619,1.63026 0.91374,2.69884 4.14348,15.39785 -6.00125,31.04649 -21.677579,33.43852 -2.977229,0.45429 -4.932536,0.45405 -7.805208,-9.7e-4 z m 6.605332,-14.83462 c 8.577429,-2.23414 11.730532,-12.85582 5.687369,-19.15872 -4.203278,-4.38393 -11.750861,-4.52198 -16.218542,-0.29663 -4.771941,4.5131 -4.791968,12.17107 -0.04357,16.6619 2.989533,2.82738 6.690753,3.8051 10.574745,2.79345 z m 91.981125,-0.398 c 0.87999,-0.29644 2.03709,-0.81607 2.57134,-1.15473 1.56671,-0.99311 3.45561,-3.213 4.362,-5.12635 0.78832,-1.6641 0.8427,-1.96668 0.8427,-4.6893 0,-2.72262 -0.0544,-3.0252 -0.8427,-4.6893 -2.10864,-4.45123 -6.28911,-6.82007 -11.45167,-6.48903 -3.64437,0.2337 -6.66803,1.91221 -8.52481,4.73235 -4.3294,6.57563 -1.25607,15.19886 6.26709,17.58437 1.68594,0.53459 4.92912,0.45418 6.77605,-0.16801 z M 77.040752,163.77568 c 1.065556,-0.14629 5.449718,-0.67616 9.742582,-1.1775 7.349861,-0.85833 13.821736,-1.62668 37.967706,-4.5076 5.52979,-0.65977 12.55448,-1.49345 15.61042,-1.85261 3.05593,-0.35917 10.08062,-1.19235 15.61041,-1.85151 5.52979,-0.65917 11.0662,-1.31451 12.30313,-1.45632 6.06087,-0.69487 9.53253,-2.76504 11.56304,-6.89511 0.52314,-1.06407 2.44175,-7.42281 5.10475,-16.91836 4.52485,-16.13445 6.76293,-23.99299 7.03513,-24.70232 0.15365,-0.40041 -5.17041,-0.4331 -70.53672,-0.4331 -67.214791,0 -70.695783,0.0228 -70.558355,0.46302 0.07951,0.25466 2.004214,5.16599 4.277126,10.91406 5.163335,13.0578 14.110689,35.95229 17.604084,45.04531 1.07101,2.78776 1.507708,3.63803 1.868496,3.63803 0.258955,0 1.342645,-0.1197 2.408201,-0.26599 z"
       id="path1" /></g></svg>
