<?xml version="1.0" encoding="UTF-8" standalone="no"?>
<!-- Created with Inkscape (http://www.inkscape.org/) -->

<svg
   width="143.13844mm"
   height="128.00156mm"
   viewBox="0 0 143.13844 128.00156"
   version="1.1"
   id="svg1"
   xml:space="preserve"
   inkscape:version="1.4 (86a8ad7, 2024-10-11)"
   sodipodi:docname="Diamant.svg"
   xmlns:inkscape="http://www.inkscape.org/namespaces/inkscape"
   xmlns:sodipodi="http://sodipodi.sourceforge.net/DTD/sodipodi-0.dtd"
   xmlns="http://www.w3.org/2000/svg"
   xmlns:svg="http://www.w3.org/2000/svg"><sodipodi:namedview
     id="namedview1"
     pagecolor="#ffffff"
     bordercolor="#000000"
     borderopacity="0.25"
     inkscape:showpageshadow="2"
     inkscape:pageopacity="0.0"
     inkscape:pagecheckerboard="0"
     inkscape:deskcolor="#d1d1d1"
     inkscape:document-units="mm"
     inkscape:zoom="0.64000704"
     inkscape:cx="246.09104"
     inkscape:cy="160.93573"
     inkscape:window-width="1280"
     inkscape:window-height="730"
     inkscape:window-x="-6"
     inkscape:window-y="-6"
     inkscape:window-maximized="1"
     inkscape:current-layer="layer1" /><defs
     id="defs1" /><g
     inkscape:label="Ebene 1"
     inkscape:groupmode="layer"
     id="layer1"
     transform="translate(-29.46609,-79.919782)"><path
       style="fill:#000000;stroke-width:0.751161"
       d="m 100.1546,206.60429 c -0.461741,-0.26913 -9.648057,-11.41948 -20.180356,-24.49496 -3.16976,-3.93514 -7.819021,-9.65898 -10.331691,-12.71965 -2.512671,-3.06066 -7.686096,-9.44035 -11.496502,-14.17711 -3.810407,-4.73673 -8.977861,-11.11643 -11.483231,-14.17709 -2.505372,-3.06067 -7.162433,-8.81929 -10.349024,-12.79692 -5.283836,-6.59551 -5.793802,-7.32151 -5.793802,-8.24823 0,-0.92584 0.489815,-1.6256 5.510585,-7.87253 3.030821,-3.77099 9.418791,-11.89356 14.195489,-18.050141 4.776697,-6.156585 8.941661,-11.37363 9.255475,-11.593433 0.502652,-0.352071 5.517933,-0.399642 42.132887,-0.399642 27.63994,0 41.73085,0.09019 42.06543,0.269253 0.2767,0.148089 1.66498,1.787732 3.08504,3.64365 4.03859,5.278137 13.93805,18.030803 17.73871,22.851363 7.08481,8.98598 7.7875,9.98731 7.7875,11.09719 0,1.35771 0.49618,0.69327 -12.19441,16.32956 -2.1292,2.62343 -7.61335,9.42049 -12.18701,15.10459 -8.91333,11.0774 -21.58015,26.67744 -31.41695,38.6921 -3.34259,4.08264 -7.7213,9.46576 -9.7305,11.96248 -2.11017,2.62224 -3.90089,4.60595 -4.23987,4.69682 -0.86739,0.23255 -1.85113,0.18381 -2.36777,-0.1173 z m 3.67327,-24.0335 c 1.18653,-3.89745 4.32909,-14.00258 6.98345,-22.45585 2.65437,-8.45326 6.12794,-19.5432 7.71904,-24.64431 1.59109,-5.10111 3.0621,-9.78154 3.26893,-10.40097 l 0.37603,-1.12621 H 101.41598 80.656646 l 1.411625,4.30613 c 0.776394,2.36837 3.395562,10.6262 5.820377,18.35074 2.42481,7.72453 6.360679,20.24544 8.746363,27.82423 2.385694,7.57878 4.418149,14.10756 4.516559,14.50834 0.0985,0.40081 0.25545,0.72771 0.34895,0.72647 0.0935,-0.001 1.14082,-3.19111 2.32735,-7.08857 z m -13.931013,-4.58796 c -1.152543,-3.56027 -3.42825,-10.70646 -5.057133,-15.88045 -1.628882,-5.17398 -4.306071,-13.64048 -5.949309,-18.81447 -1.643237,-5.17398 -3.680526,-11.6367 -4.527309,-14.36161 l -1.539604,-4.95435 -14.725681,-0.0805 c -8.099123,-0.0443 -14.768855,-0.0572 -14.821625,-0.0287 -0.09254,0.0499 1.43871,1.99404 13.213086,16.77552 4.754029,5.96818 19.160901,23.90068 27.037273,33.65381 1.471258,1.82183 3.945821,4.88614 5.499034,6.80958 1.553205,1.92346 2.856143,3.46506 2.895404,3.42578 0.03932,-0.0393 -0.871593,-2.98432 -2.024136,-6.54458 z m 32.355793,-7.00319 c 17.77455,-22.06417 19.28645,-23.93939 24.33417,-30.18199 6.89148,-8.52284 13.24962,-16.58615 13.24968,-16.80309 3e-5,-0.10099 -6.7076,-0.15039 -14.90584,-0.10977 l -14.90589,0.0738 -1.3645,4.43104 c -2.70809,8.79412 -12.4946,39.9219 -15.84794,50.40727 -0.76909,2.40481 -1.48184,4.73012 -1.58389,5.16736 -0.16159,0.69241 -0.13717,0.74369 0.18923,0.39749 0.20612,-0.21863 5.08187,-6.24058 10.83498,-13.38214 z m -2.96008,-54.82969 c 0,-0.0598 -1.93842,-2.77265 -4.3076,-6.02859 -2.36917,-3.25593 -6.38226,-8.99601 -8.91798,-12.755718 -2.53572,-3.759708 -4.69645,-6.740877 -4.80164,-6.624818 -0.10519,0.116058 -1.895512,2.77482 -3.978498,5.908359 -4.038488,6.075287 -7.646375,11.194537 -11.431359,16.219997 -1.285323,1.70657 -2.336952,3.16735 -2.336952,3.24616 0,0.0789 8.049157,0.14331 17.887009,0.14331 9.83785,0 17.88702,-0.0489 17.88702,-0.1087 z m -49.553651,-0.28757 c 0,-0.0721 -1.681524,-4.3949 -3.73672,-9.60599 C 63.947004,101.0453 61.940557,95.904186 61.54343,94.831693 l -0.72205,-1.949987 -1.736199,2.374414 c -2.305419,3.152873 -10.651891,13.77059 -13.689472,17.41465 -1.331581,1.59745 -2.421056,2.9986 -2.421056,3.11367 0,0.11506 6.02196,0.20922 13.382133,0.20922 7.360173,0 13.382133,-0.059 13.382133,-0.13128 z m 89.522771,-1.28631 c -5.2267,-6.45583 -8.97977,-11.20385 -12.66324,-16.020245 l -4.31765,-5.645652 -2.37093,5.910645 c -3.09316,7.711182 -6.57269,16.689422 -6.57269,16.959552 0,0.11731 6.09124,0.21329 13.5361,0.21329 h 13.53609 z m -80.755942,-4.4785 c 1.059842,-1.4939 3.738063,-5.16074 5.951601,-8.14853 2.213539,-2.987794 5.001263,-6.863313 6.194954,-8.612266 l 2.170337,-3.179912 -12.510882,-0.06886 c -6.880983,-0.03788 -12.545219,-0.03453 -12.587192,0.0074 -0.04198,0.04198 1.577363,4.151658 3.598525,9.132632 2.021161,4.980976 4.006725,10.075426 4.412362,11.320996 0.405638,1.24558 0.761326,2.26468 0.790417,2.26468 0.02909,0 0.920037,-1.22228 1.979878,-2.71617 z m 48.853422,0.19875 c 0.40174,-1.16598 2.28277,-5.93585 4.18011,-10.59972 1.89732,-4.663872 3.55207,-8.748073 3.6772,-9.076001 l 0.22752,-0.596234 h -12.58528 -12.58528 l 2.35319,3.511154 c 1.29425,1.931135 4.48621,6.43743 7.09324,10.013991 2.60703,3.57656 5.15742,7.11558 5.66753,7.86449 0.5101,0.74891 0.9981,1.28078 1.08441,1.18195 0.0863,-0.0989 0.48563,-1.13367 0.88736,-2.29963 z"
       id="path3" /></g></svg>
