<?xml version="1.0" encoding="UTF-8" standalone="no"?>
<!-- Created with Inkscape (http://www.inkscape.org/) -->

<svg
   width="145mm"
   height="145mm"
   viewBox="0 0 145 145"
   version="1.1"
   id="svg1"
   xml:space="preserve"
   inkscape:version="1.4 (86a8ad7, 2024-10-11)"
   sodipodi:docname="Flagge.svg"
   xmlns:inkscape="http://www.inkscape.org/namespaces/inkscape"
   xmlns:sodipodi="http://sodipodi.sourceforge.net/DTD/sodipodi-0.dtd"
   xmlns="http://www.w3.org/2000/svg"
   xmlns:svg="http://www.w3.org/2000/svg"><sodipodi:namedview
     id="namedview1"
     pagecolor="#ffffff"
     bordercolor="#000000"
     borderopacity="0.25"
     inkscape:showpageshadow="2"
     inkscape:pageopacity="0.0"
     inkscape:pagecheckerboard="0"
     inkscape:deskcolor="#d1d1d1"
     inkscape:document-units="mm"
     inkscape:zoom="0.45255332"
     inkscape:cx="67.395374"
     inkscape:cy="205.50065"
     inkscape:window-width="1280"
     inkscape:window-height="730"
     inkscape:window-x="-6"
     inkscape:window-y="-6"
     inkscape:window-maximized="1"
     inkscape:current-layer="layer1" /><defs
     id="defs1" /><g
     inkscape:label="Ebene 1"
     inkscape:groupmode="layer"
     id="layer1"
     transform="translate(-28.781134,-71.893806)"
     style="display:inline"><path
       style="display:none;fill:#3e2311;fill-opacity:1;stroke-width:0.751161"
       d="m 100.1546,206.60429 c -0.461741,-0.26913 -9.648057,-11.41948 -20.180356,-24.49496 -3.16976,-3.93514 -7.819021,-9.65898 -10.331691,-12.71965 -2.512671,-3.06066 -7.686096,-9.44035 -11.496502,-14.17711 -3.810407,-4.73673 -8.977861,-11.11643 -11.483231,-14.17709 -2.505372,-3.06067 -7.162433,-8.81929 -10.349024,-12.79692 -5.283836,-6.59551 -5.793802,-7.32151 -5.793802,-8.24823 0,-0.92584 0.489815,-1.6256 5.510585,-7.87253 3.030821,-3.77099 9.418791,-11.89356 14.195489,-18.050141 4.776697,-6.156585 8.941661,-11.37363 9.255475,-11.593433 0.502652,-0.352071 5.517933,-0.399642 42.132887,-0.399642 27.63994,0 41.73085,0.09019 42.06543,0.269253 0.2767,0.148089 1.66498,1.787732 3.08504,3.64365 4.03859,5.278137 13.93805,18.030803 17.73871,22.851363 7.08481,8.98598 7.7875,9.98731 7.7875,11.09719 0,1.35771 0.49618,0.69327 -12.19441,16.32956 -2.1292,2.62343 -7.61335,9.42049 -12.18701,15.10459 -8.91333,11.0774 -21.58015,26.67744 -31.41695,38.6921 -3.34259,4.08264 -7.7213,9.46576 -9.7305,11.96248 -2.11017,2.62224 -3.90089,4.60595 -4.23987,4.69682 -0.86739,0.23255 -1.85113,0.18381 -2.36777,-0.1173 z m 3.67327,-24.0335 c 1.18653,-3.89745 4.32909,-14.00258 6.98345,-22.45585 2.65437,-8.45326 6.12794,-19.5432 7.71904,-24.64431 1.59109,-5.10111 3.0621,-9.78154 3.26893,-10.40097 l 0.37603,-1.12621 H 101.41598 80.656646 l 1.411625,4.30613 c 0.776394,2.36837 3.395562,10.6262 5.820377,18.35074 2.42481,7.72453 6.360679,20.24544 8.746363,27.82423 2.385694,7.57878 4.418149,14.10756 4.516559,14.50834 0.0985,0.40081 0.25545,0.72771 0.34895,0.72647 0.0935,-0.001 1.14082,-3.19111 2.32735,-7.08857 z m -13.931013,-4.58796 c -1.152543,-3.56027 -3.42825,-10.70646 -5.057133,-15.88045 -1.628882,-5.17398 -4.306071,-13.64048 -5.949309,-18.81447 -1.643237,-5.17398 -3.680526,-11.6367 -4.527309,-14.36161 l -1.539604,-4.95435 -14.725681,-0.0805 c -8.099123,-0.0443 -14.768855,-0.0572 -14.821625,-0.0287 -0.09254,0.0499 1.43871,1.99404 13.213086,16.77552 4.754029,5.96818 19.160901,23.90068 27.037273,33.65381 1.471258,1.82183 3.945821,4.88614 5.499034,6.80958 1.553205,1.92346 2.856143,3.46506 2.895404,3.42578 0.03932,-0.0393 -0.871593,-2.98432 -2.024136,-6.54458 z m 32.355793,-7.00319 c 17.77455,-22.06417 19.28645,-23.93939 24.33417,-30.18199 6.89148,-8.52284 13.24962,-16.58615 13.24968,-16.80309 3e-5,-0.10099 -6.7076,-0.15039 -14.90584,-0.10977 l -14.90589,0.0738 -1.3645,4.43104 c -2.70809,8.79412 -12.4946,39.9219 -15.84794,50.40727 -0.76909,2.40481 -1.48184,4.73012 -1.58389,5.16736 -0.16159,0.69241 -0.13717,0.74369 0.18923,0.39749 0.20612,-0.21863 5.08187,-6.24058 10.83498,-13.38214 z m -2.96008,-54.82969 c 0,-0.0598 -1.93842,-2.77265 -4.3076,-6.02859 -2.36917,-3.25593 -6.38226,-8.99601 -8.91798,-12.755718 -2.53572,-3.759708 -4.69645,-6.740877 -4.80164,-6.624818 -0.10519,0.116058 -1.895512,2.77482 -3.978498,5.908359 -4.038488,6.075287 -7.646375,11.194537 -11.431359,16.219997 -1.285323,1.70657 -2.336952,3.16735 -2.336952,3.24616 0,0.0789 8.049157,0.14331 17.887009,0.14331 9.83785,0 17.88702,-0.0489 17.88702,-0.1087 z m -49.553651,-0.28757 c 0,-0.0721 -1.681524,-4.3949 -3.73672,-9.60599 C 63.947004,101.0453 61.940557,95.904186 61.54343,94.831693 l -0.72205,-1.949987 -1.736199,2.374414 c -2.305419,3.152873 -10.651891,13.77059 -13.689472,17.41465 -1.331581,1.59745 -2.421056,2.9986 -2.421056,3.11367 0,0.11506 6.02196,0.20922 13.382133,0.20922 7.360173,0 13.382133,-0.059 13.382133,-0.13128 z m 89.522771,-1.28631 c -5.2267,-6.45583 -8.97977,-11.20385 -12.66324,-16.020245 l -4.31765,-5.645652 -2.37093,5.910645 c -3.09316,7.711182 -6.57269,16.689422 -6.57269,16.959552 0,0.11731 6.09124,0.21329 13.5361,0.21329 h 13.53609 z m -80.755942,-4.4785 c 1.059842,-1.4939 3.738063,-5.16074 5.951601,-8.14853 2.213539,-2.987794 5.001263,-6.863313 6.194954,-8.612266 l 2.170337,-3.179912 -12.510882,-0.06886 c -6.880983,-0.03788 -12.545219,-0.03453 -12.587192,0.0074 -0.04198,0.04198 1.577363,4.151658 3.598525,9.132632 2.021161,4.980976 4.006725,10.075426 4.412362,11.320996 0.405638,1.24558 0.761326,2.26468 0.790417,2.26468 0.02909,0 0.920037,-1.22228 1.979878,-2.71617 z m 48.853422,0.19875 c 0.40174,-1.16598 2.28277,-5.93585 4.18011,-10.59972 1.89732,-4.663872 3.55207,-8.748073 3.6772,-9.076001 l 0.22752,-0.596234 h -12.58528 -12.58528 l 2.35319,3.511154 c 1.29425,1.931135 4.48621,6.43743 7.09324,10.013991 2.60703,3.57656 5.15742,7.11558 5.66753,7.86449 0.5101,0.74891 0.9981,1.28078 1.08441,1.18195 0.0863,-0.0989 0.48563,-1.13367 0.88736,-2.29963 z"
       id="path3" /><path
       style="display:none;fill:#3e2311;fill-opacity:1"
       d="M 99.295356,204.57034 C 93.095563,191.91289 80.959074,178.27386 65.616664,166.7221 c -2.255573,-1.69828 -4.577292,-3.40056 -5.159375,-3.78283 -0.582084,-0.38228 -2.665677,-1.73333 -4.630209,-3.00234 -8.747545,-5.65059 -15.459068,-13.02919 -20.332674,-22.3536 -6.577941,-12.58521 -7.824161,-25.44821 -3.484997,-35.97079 3.148392,-7.634929 9.364537,-14.189044 17.070796,-17.998929 5.681273,-2.808755 8.968354,-3.580097 15.213542,-3.569986 4.8203,0.0078 7.147297,0.378385 11.1125,1.769699 10.662307,3.741198 20.517733,14.082005 24.621573,25.834186 0.46773,1.33945 0.8782,2.40195 0.91216,2.36111 0.0339,-0.0408 0.44923,-1.14581 0.92285,-2.45549 3.59928,-9.953164 11.13241,-18.909076 19.8455,-23.593726 6.57874,-3.537099 14.41235,-4.836205 21.4674,-3.560096 12.52271,2.265093 23.50585,11.315501 27.57964,22.726372 1.34746,3.7743 1.83924,6.92236 1.84894,11.83578 0.01,5.07537 -0.32229,7.37894 -1.81023,12.54845 -2.68326,9.32239 -7.7907,17.75525 -15.20862,25.11086 -3.3602,3.33198 -4.34781,4.10092 -10.59379,8.24818 -16.32052,10.83664 -29.10603,23.00832 -37.53889,35.73665 -1.40532,2.12115 -3.3864,5.5341 -4.40239,7.58433 -1.016,2.05023 -1.9068,3.72936 -1.97956,3.7314 -0.0728,0.002 -0.87172,-1.5059 -1.775474,-3.35099 z"
       id="path1" /><path
       id="path2"
       style="display:none;fill:#3e2311;fill-opacity:1;stroke-width:0.711405"
       d="m 115.31008,80.454513 c -0.0505,0.04924 -0.10125,0.09847 -0.15177,0.147716 -3.64815,3.546004 -7.43489,6.965056 -11.05638,10.526929 -0.55405,0.899118 -0.1535,2.007713 -0.27259,2.998993 0.0683,0.554477 -0.22613,1.258662 0.3599,1.598989 3.97848,3.961298 7.87247,8.00961 11.96297,11.85537 -9.9889,3.32615 -18.493735,10.65771 -23.526957,19.87415 -7.343567,-3.48641 -15.713334,-4.31763 -23.730515,-3.45129 -1.835478,0.079 -3.68449,0.8586 -5.496461,1.29088 -1.779023,0.44802 -3.542885,0.98036 -5.169556,1.84416 -9.092399,4.17494 -16.771484,11.50409 -21.013249,20.60208 -5.010637,10.52146 -5.367631,23.17814 -0.786297,33.91227 3.6763,8.69703 10.37807,16.1132 18.706138,20.57416 8.571111,4.50701 18.708087,6.09816 28.217328,4.17057 10.0786,-2.08384 19.199429,-8.17448 25.163519,-16.53964 1.06338,-1.46661 2.04005,-2.99842 2.9071,-4.58985 7.34493,3.5118 15.72086,4.31577 23.74575,3.47919 2.20216,-0.19254 4.26642,-1.06988 6.41017,-1.55229 2.3672,-0.56374 4.52538,-1.72386 6.67971,-2.81777 8.03219,-4.29396 14.72834,-11.13251 18.58888,-19.40512 4.91006,-10.34587 5.34285,-22.74555 0.99391,-33.35796 -3.75538,-9.22772 -10.89645,-17.07921 -19.80513,-21.56248 -1.27222,-0.62684 -2.57191,-1.19871 -3.90052,-1.69594 4.37932,-4.31315 8.6917,-8.697082 13.18633,-12.89242 0.35846,-1.041637 0.0498,-2.161538 0.16701,-3.237572 0.0726,-0.62833 -0.20164,-1.176748 -0.71472,-1.537059 -3.44796,-3.468165 -6.96129,-6.870941 -10.51069,-10.236066 z m 4.43859,5.557882 h 2.6533 2.6528 l -0.18121,0.235534 c -0.0996,0.129405 -0.83936,1.0612 -1.64366,2.070563 -1.67962,2.107899 -1.66031,2.097555 -1.97513,1.035028 -0.13037,-0.439968 -0.52256,-1.371777 -0.87158,-2.070564 z m 18.91934,0 h 2.5533 l -0.12691,0.423859 c -0.0699,0.232928 -0.46339,1.291673 -0.87411,2.352798 -0.85798,2.216618 -0.75973,2.116561 -1.27005,1.290866 -0.21692,-0.350988 -0.94375,-1.37498 -1.61523,-2.275641 -0.67149,-0.90066 -1.22082,-1.672319 -1.22082,-1.714725 0,-0.04241 1.14927,-0.07716 2.55382,-0.07716 z m -8.38936,0.188326 c 0.0864,0 0.43638,0.360018 0.77817,0.800001 0.34179,0.43997 1.32326,1.592975 2.18071,2.562444 0.85743,0.969471 1.55889,1.837699 1.55889,1.929446 0,0.09189 -1.94881,0.166497 -4.34468,0.166497 -2.38969,0 -4.31672,-0.06342 -4.28224,-0.141117 0.18097,-0.407171 3.97548,-5.317271 4.10915,-5.317271 z m 15.03658,0.889342 0.59391,0.500001 c 1.37745,1.159051 3.94518,3.584646 3.94518,3.726912 0,0.0847 -1.4315,0.154316 -3.18122,0.154316 h -3.18123 L 144.3,89.676363 c 0.44456,-0.987114 0.8547,-1.972719 0.91168,-2.19036 z m -29.72799,0.659392 c 0.0712,-0.02817 0.51985,0.797494 0.99746,1.83503 l 0.86853,1.886807 h -2.92285 -2.92285 l 1.92539,-1.835538 c 1.05876,-1.009352 1.9831,-1.858097 2.05432,-1.886299 z m 26.26707,8.079715 3.52792,0.03249 c 1.94032,0.01798 3.50719,0.08868 3.48224,0.156853 -0.0689,0.187962 -12.37414,12.662837 -12.37414,12.544697 0,-0.22519 2.52043,-6.33143 3.08935,-7.48478 0.33406,-0.6772 0.98256,-2.135648 1.44112,-3.240623 z m -22.61224,0.06548 0.64721,1.411678 c 0.35581,0.776426 1.40255,3.049952 2.3264,5.052812 0.92384,2.00286 1.89834,4.18801 2.16549,4.85534 0.26716,0.66734 0.44809,1.25088 0.40202,1.29695 -0.11673,0.11674 -5.48671,-5.1759 -9.30813,-9.174132 l -3.1858,-3.333511 3.47665,-0.05431 z m 11.41322,0.09391 c 3.4163,0 6.2117,0.0466 6.2117,0.104062 0,0.05739 -0.56199,1.476168 -1.24874,3.152799 -0.68673,1.676649 -1.70554,4.192299 -2.26396,5.589869 -0.55844,1.39759 -1.36552,3.28197 -1.79391,4.18782 -0.42837,0.90583 -0.84147,1.64721 -0.91828,1.64721 -0.11832,0 -1.30407,-2.62541 -1.30407,-2.88732 0,-0.0493 -1.10139,-2.67877 -2.44721,-5.84366 -1.34581,-3.164908 -2.4467,-5.798783 -2.4467,-5.852809 0,-0.05393 2.79487,-0.09797 6.21117,-0.09797 z m -1.15786,20.21984 c 7.97279,-0.0856 16.08888,3.13174 21.58583,9.01424 3.7505,3.93755 6.32152,8.89792 7.87058,14.08074 0.5995,2.93063 1.01843,5.75459 0.9528,8.74673 -0.0766,6.44678 -2.22493,12.9851 -6.26804,18.08532 -3.33746,4.26434 -7.82863,7.58639 -12.76602,9.76094 -2.33708,0.65597 -4.68197,1.28798 -7.02489,1.9269 -1.99542,0.44693 -4.01777,0.35029 -6.06144,0.28935 -4.19353,-0.19122 -8.36617,-1.36882 -12.34369,-2.92996 2.58099,-9.76767 1.50975,-20.59778 -3.50711,-29.42748 -1.80999,-3.04253 -4.04941,-5.81197 -6.40052,-8.44876 -1.03827,-1.04494 -2.17632,-1.98279 -3.27666,-2.96041 -1.30737,3.23778 -2.20122,6.65024 -2.642644,10.11272 -0.03724,0.75956 -0.240472,1.62755 0.381726,2.21066 2.076508,2.88076 3.706918,6.07022 4.954328,9.38886 0.42981,1.98281 1.08223,3.94218 1.3467,5.93148 0.28882,6.59376 -0.92342,13.38479 -4.33656,19.1036 -4.286589,7.3619 -11.777228,12.65317 -20.048269,14.56045 -7.075899,1.68482 -14.68048,0.96684 -21.19193,-2.34468 -6.478768,-3.25924 -11.442114,-9.1076 -14.155872,-15.78176 -0.833195,-2.01018 -1.594408,-3.99642 -1.861934,-6.16906 -0.724147,-4.16051 -0.8021,-8.46035 0.07767,-12.5584 1.421772,-7.04652 5.543281,-13.46906 11.29749,-17.76502 2.168641,-1.61911 4.481824,-3.09387 6.986311,-4.13249 2.244851,-0.68177 4.524035,-1.24242 6.773114,-1.9122 1.897753,-0.48552 3.999655,-0.39851 6.004075,-0.43705 4.429055,0.0434 8.821176,0.86721 12.778712,2.91269 -2.61679,9.80309 -1.539255,20.68867 3.513207,29.5478 1.799433,3.00593 3.974903,5.78039 6.32032,8.37565 1.131902,1.10306 2.389026,2.06278 3.590356,3.08732 1.25462,-3.51014 2.20376,-7.14349 2.55432,-10.86094 0.20281,-0.6773 -0.16467,-1.29825 -0.6406,-1.74518 -2.12797,-2.81172 -3.6532,-6.03972 -4.900014,-9.32033 -0.424179,-1.98131 -1.064401,-3.92967 -1.317262,-5.93961 -0.185667,-5.3202 0.501173,-10.74434 2.667016,-15.64471 2.3451,-5.50201 6.45167,-10.31951 11.52489,-13.55282 3.56877,-2.31286 7.82494,-3.98944 12.14267,-4.73098 1.76639,-0.30144 3.58193,-0.46632 5.42134,-0.47361 z" /><path
       style="display:none;fill:#3e2311;fill-opacity:1;stroke-width:0.853023"
       d="m 99.679923,207.59135 c -1.17208,-0.53235 -1.31844,-0.72547 -7.373748,-9.73021 -13.300871,-19.77944 -21.615167,-33.43478 -27.483737,-45.13908 -6.387773,-12.7398 -9.007497,-23.12559 -8.140973,-32.27445 0.582545,-6.1505 1.980004,-11.21943 4.511126,-16.36293 4.96982,-10.09921 12.732334,-17.490349 22.530074,-21.452171 5.275372,-2.133155 9.660916,-3.022826 15.779158,-3.201032 7.837097,-0.228272 13.701087,0.881746 20.278487,3.838604 12.68684,5.703354 22.05082,17.668219 25.05977,32.020249 0.72539,3.45995 0.99092,9.61859 0.57265,13.28231 -1.68795,14.78542 -11.5082,33.65355 -37.24186,71.5547 -4.2054,6.19384 -4.92767,7.09949 -6.04399,7.57848 -0.94699,0.40635 -1.34089,0.38793 -2.446957,-0.11447 z m 6.443347,-59.05762 c 9.80351,-1.8597 17.35886,-9.27971 19.87842,-19.52235 0.76519,-3.1107 0.77319,-8.48468 0.0169,-11.35926 -2.2811,-8.67029 -8.5326,-15.38319 -16.95295,-18.204286 -6.35887,-2.130409 -12.951814,-1.657306 -19.127523,1.372556 -7.554368,3.70629 -12.890433,10.88852 -14.066783,18.93366 -0.401719,2.74733 -0.164402,7.03854 0.53974,9.75964 1.480878,5.72275 4.795052,10.70104 9.514913,14.29244 2.94028,2.2373 6.43593,3.81558 10.269155,4.6365 2.491151,0.5335 7.360438,0.57818 9.928128,0.0912 z"
       id="path2-1" /><path
       style="display:inline;fill:#3e2311;fill-opacity:1;stroke-width:0.899478"
       d="m 49.891249,207.34704 c -2.048228,-0.57859 -3.54673,-1.80934 -4.548154,-3.73547 L 44.7863,202.54062 44.72486,144.71783 c -0.06989,-65.813751 -0.28267,-59.436662 2.061278,-61.780607 1.048881,-1.048887 1.669386,-1.459297 2.643871,-1.748687 2.831663,-0.840913 5.130539,-0.280396 7.155641,1.744706 1.900299,1.900303 2.122839,2.745264 2.122839,8.060253 0,3.855241 0.02932,4.135151 0.416476,3.97814 2.910386,-1.180254 9.317419,-2.820418 13.949593,-3.571019 13.238961,-2.145252 25.107487,-1.090686 36.920092,3.280496 8.05202,2.979606 13.45121,3.981882 21.48195,3.987795 6.81037,0.0051 11.88606,-0.655079 18.61881,-2.421379 4.28834,-1.12502 4.97908,-1.093427 5.90339,0.269999 0.89251,1.316536 0.65778,2.469799 -1.13873,5.594613 -2.22762,3.87465 -12.48264,21.32761 -13.9588,23.75638 -0.7025,1.15584 -1.27728,2.13968 -1.27728,2.18631 0,0.0467 3.57481,5.80019 7.944,12.78565 4.3692,6.98546 8.18265,13.16866 8.47435,13.74043 0.88701,1.73869 0.4094,3.34451 -1.24992,4.20259 -1.85088,0.95713 -11.32266,2.56223 -17.55969,2.97568 -7.91682,0.52482 -16.2159,-0.53452 -23.90627,-3.05153 -1.04714,-0.34272 -3.72449,-1.39722 -5.94967,-2.34332 -4.79352,-2.03814 -6.98117,-2.75471 -11.02897,-3.61253 -2.813196,-0.59618 -3.413292,-0.63863 -9.080919,-0.64228 -5.216016,-0.004 -6.503339,0.071 -9.162491,0.52882 -6.14882,1.05876 -12.190998,2.779 -17.313532,4.92924 l -2.082389,0.8741 v 21.5898 c 0,24.15269 0.07034,23.098 -1.673263,25.07887 -1.760934,2.00053 -4.710725,2.92406 -7.14401,2.23669 z m 10.472779,-66.36451 c 1.359615,-4.07823 1.930837,-7.46571 2.0806,-12.33842 0.14952,-4.86458 -0.08059,-7.64678 -1.021699,-12.35223 -0.537537,-2.68768 -2.351432,-8.82696 -2.607981,-8.82696 -0.05856,0 -0.09886,8.48721 -0.08959,18.86044 0.01655,18.55927 0.02383,18.84464 0.457304,17.87 0.242274,-0.54476 0.773892,-1.99053 1.181391,-3.21283 z"
       id="path1-2" /></g></svg>
