<?xml version="1.0" encoding="UTF-8" standalone="no"?>
<!-- Created with Inkscape (http://www.inkscape.org/) -->

<svg
   width="143.13844mm"
   height="128.00156mm"
   viewBox="0 0 143.13844 128.00156"
   version="1.1"
   id="svg1"
   xml:space="preserve"
   inkscape:version="1.4 (86a8ad7, 2024-10-11)"
   sodipodi:docname="Flagge.svg"
   xmlns:inkscape="http://www.inkscape.org/namespaces/inkscape"
   xmlns:sodipodi="http://sodipodi.sourceforge.net/DTD/sodipodi-0.dtd"
   xmlns="http://www.w3.org/2000/svg"
   xmlns:svg="http://www.w3.org/2000/svg"><sodipodi:namedview
     id="namedview1"
     pagecolor="#ffffff"
     bordercolor="#000000"
     borderopacity="0.25"
     inkscape:showpageshadow="2"
     inkscape:pageopacity="0.0"
     inkscape:pagecheckerboard="0"
     inkscape:deskcolor="#d1d1d1"
     inkscape:document-units="mm"
     inkscape:zoom="0.64000704"
     inkscape:cx="246.09104"
     inkscape:cy="160.93573"
     inkscape:window-width="1280"
     inkscape:window-height="730"
     inkscape:window-x="-6"
     inkscape:window-y="-6"
     inkscape:window-maximized="1"
     inkscape:current-layer="layer1" /><defs
     id="defs1" /><g
     inkscape:label="Ebene 1"
     inkscape:groupmode="layer"
     id="layer1"
     transform="translate(-29.46609,-79.919782)"><path
       style="fill:#000000;stroke-width:0.899478"
       d="m 50.576205,207.18798 c -2.048228,-0.57859 -3.54673,-1.80934 -4.548154,-3.73547 l -0.556795,-1.07095 -0.06144,-57.82279 c -0.06989,-65.813754 -0.28267,-59.436665 2.061278,-61.78061 1.048881,-1.048887 1.669386,-1.459297 2.643871,-1.748687 2.831663,-0.840913 5.130539,-0.280396 7.155641,1.744706 1.900299,1.900303 2.122839,2.745264 2.122839,8.060253 0,3.855241 0.02932,4.135151 0.416476,3.97814 2.910386,-1.180254 9.317419,-2.820418 13.949593,-3.571019 13.238961,-2.145252 25.107487,-1.090686 36.920096,3.280496 8.05202,2.979606 13.45121,3.981882 21.48195,3.987795 6.81037,0.0051 11.88606,-0.655079 18.61881,-2.421379 4.28834,-1.12502 4.97908,-1.093427 5.90339,0.269999 0.89251,1.316536 0.65778,2.469799 -1.13873,5.594616 -2.22762,3.87465 -12.48264,21.32761 -13.9588,23.75638 -0.7025,1.15584 -1.27728,2.13968 -1.27728,2.18631 0,0.0467 3.57481,5.80019 7.944,12.78565 4.3692,6.98546 8.18265,13.16866 8.47435,13.74043 0.88701,1.73869 0.4094,3.34451 -1.24992,4.20259 -1.85088,0.95713 -11.32266,2.56223 -17.55969,2.97568 -7.91682,0.52482 -16.2159,-0.53452 -23.90627,-3.05153 -1.04714,-0.34272 -3.72449,-1.39722 -5.94967,-2.34332 -4.79352,-2.03814 -6.98117,-2.75471 -11.028974,-3.61253 -2.813196,-0.59618 -3.413292,-0.63863 -9.080919,-0.64228 -5.216016,-0.004 -6.503339,0.071 -9.162491,0.52882 -6.14882,1.05876 -12.190998,2.779 -17.313532,4.92924 l -2.082389,0.8741 v 21.5898 c 0,24.15269 0.07034,23.098 -1.673263,25.07887 -1.760934,2.00053 -4.710725,2.92406 -7.14401,2.23669 z m 10.472779,-66.36451 c 1.359615,-4.07823 1.930837,-7.46571 2.0806,-12.33842 0.14952,-4.86458 -0.08059,-7.64678 -1.021699,-12.35223 -0.537537,-2.68768 -2.351432,-8.82696 -2.607981,-8.82696 -0.05856,0 -0.09886,8.48721 -0.08959,18.86044 0.01655,18.55927 0.02383,18.84464 0.457304,17.87 0.242274,-0.54476 0.773892,-1.99053 1.181391,-3.21283 z"
       id="path1" /></g></svg>
