<?xml version="1.0" encoding="UTF-8" standalone="no"?>
<!-- Created with Inkscape (http://www.inkscape.org/) -->

<svg
   width="143.13844mm"
   height="128.00156mm"
   viewBox="0 0 143.13844 128.00156"
   version="1.1"
   id="svg1"
   xml:space="preserve"
   inkscape:version="1.4 (86a8ad7, 2024-10-11)"
   sodipodi:docname="Haus.svg"
   xmlns:inkscape="http://www.inkscape.org/namespaces/inkscape"
   xmlns:sodipodi="http://sodipodi.sourceforge.net/DTD/sodipodi-0.dtd"
   xmlns="http://www.w3.org/2000/svg"
   xmlns:svg="http://www.w3.org/2000/svg"><sodipodi:namedview
     id="namedview1"
     pagecolor="#ffffff"
     bordercolor="#000000"
     borderopacity="0.25"
     inkscape:showpageshadow="2"
     inkscape:pageopacity="0.0"
     inkscape:pagecheckerboard="0"
     inkscape:deskcolor="#d1d1d1"
     inkscape:document-units="mm"
     inkscape:zoom="0.64000704"
     inkscape:cx="246.09104"
     inkscape:cy="160.93573"
     inkscape:window-width="1280"
     inkscape:window-height="730"
     inkscape:window-x="-6"
     inkscape:window-y="-6"
     inkscape:window-maximized="1"
     inkscape:current-layer="layer1" /><defs
     id="defs1" /><g
     inkscape:label="Ebene 1"
     inkscape:groupmode="layer"
     id="layer1"
     transform="translate(-29.46609,-79.919782)"><path
       style="fill:#000000;stroke-width:0.735941"
       d="m 54.881676,206.99444 c -1.873496,-0.59251 -3.500708,-1.90807 -4.349893,-3.5168 l -0.518047,-0.9814 -0.05127,-27.99066 -0.05127,-27.99065 -4.816669,-0.004 c -5.355449,-0.004 -5.747375,-0.0802 -7.017249,-1.35004 -1.855534,-1.85553 -1.847457,-4.32086 0.02086,-6.36509 0.963246,-1.05427 11.312271,-11.08767 20.969764,-20.33055 6.00815,-5.7502 13.555064,-13.03043 27.126452,-26.167891 5.869943,-5.68225 11.031399,-10.572616 11.469917,-10.867479 1.623221,-1.091467 3.889799,-1.206034 5.458759,-0.275919 0.45511,0.269799 3.32473,2.881041 6.37693,5.802759 17.63221,16.87844 23.95573,22.93993 26.47886,25.38162 1.55137,1.50131 4.13625,4.00249 5.74417,5.55819 1.60792,1.5557 6.34078,6.1099 10.51748,10.12045 11.38683,10.93387 11.58938,11.1356 12.02291,11.97486 0.58921,1.14061 0.56512,2.68611 -0.0609,3.90244 -0.5577,1.08371 -1.78125,2.11631 -2.86397,2.417 -0.4053,0.11256 -2.76404,0.20191 -5.34658,0.20252 l -4.62129,7.3e-4 -0.0519,27.89329 -0.0519,27.8933 -0.48216,0.97359 c -0.66714,1.34717 -1.83648,2.45163 -3.42239,3.23252 l -1.34412,0.66183 -12.59051,0.0541 c -12.20589,0.0525 -12.62246,0.0421 -13.63674,-0.33734 -1.18666,-0.444 -2.33215,-1.46164 -2.95503,-2.62526 -0.42327,-0.79072 -0.42355,-0.80042 -0.52994,-18.02366 -0.11696,-18.93207 -0.0434,-17.80329 -1.3401,-20.5742 -0.85338,-1.82363 -2.10554,-3.50228 -3.74407,-5.01931 -1.78711,-1.6546 -3.55841,-2.7081 -5.85373,-3.48159 -1.7011,-0.57326 -1.97822,-0.60925 -4.72779,-0.61414 -2.527214,-0.004 -3.117532,0.0563 -4.381145,0.45105 -5.195166,1.62298 -9.320185,5.81958 -10.843973,11.03211 -0.31038,1.06171 -0.350912,2.73153 -0.444264,18.30344 -0.11265,18.78888 -0.03869,17.68394 -1.281845,19.15835 -0.306126,0.36308 -1.086109,0.91065 -1.733285,1.21682 l -1.176677,0.55667 -12.559284,-0.0128 c -9.556675,-0.01 -12.745494,-0.0718 -13.338155,-0.25919 z"
       id="path6" /></g></svg>
