<?xml version="1.0" encoding="UTF-8" standalone="no"?>
<!-- Created with Inkscape (http://www.inkscape.org/) -->

<svg
   width="105.00536mm"
   height="105.00536mm"
   viewBox="0 0 105.00536 105.00536"
   version="1.1"
   id="svg1"
   xml:space="preserve"
   sodipodi:docname="LabelIcon.svg"
   inkscape:version="1.4 (86a8ad7, 2024-10-11)"
   xmlns:inkscape="http://www.inkscape.org/namespaces/inkscape"
   xmlns:sodipodi="http://sodipodi.sourceforge.net/DTD/sodipodi-0.dtd"
   xmlns="http://www.w3.org/2000/svg"
   xmlns:svg="http://www.w3.org/2000/svg"><sodipodi:namedview
     id="namedview1"
     pagecolor="#ffffff"
     bordercolor="#000000"
     borderopacity="0.25"
     inkscape:showpageshadow="2"
     inkscape:pageopacity="0.0"
     inkscape:pagecheckerboard="0"
     inkscape:deskcolor="#d1d1d1"
     inkscape:document-units="mm"
     inkscape:zoom="0.45255328"
     inkscape:cx="-431.99333"
     inkscape:cy="198.87161"
     inkscape:window-width="1280"
     inkscape:window-height="730"
     inkscape:window-x="-6"
     inkscape:window-y="-6"
     inkscape:window-maximized="1"
     inkscape:current-layer="layer1" /><defs
     id="defs1" /><g
     inkscape:label="Ebene 1"
     inkscape:groupmode="layer"
     id="layer1"
     transform="translate(-167.01639,-95.083595)"><path
       id="path1"
       style="fill:#000000"
       d="M 222.41663 107.76654 L 218.14402 107.96601 L 213.87141 108.16548 L 210.82819 108.88224 L 207.78496 109.59899 L 205.3603 110.51159 L 202.93564 111.42368 L 200.28981 112.84427 L 197.64398 114.26485 L 195.15317 116.16448 L 192.66237 118.06462 L 190.71727 120.10687 L 188.77165 122.14913 L 187.17485 124.3216 L 185.57805 126.49408 L 183.97453 129.61327 L 182.37101 132.73246 L 181.48372 135.56329 L 180.59592 138.39361 L 180.17011 141.30506 L 179.74481 144.216 L 179.91793 149.76346 L 180.09104 155.31041 L 180.98091 158.66163 L 181.87026 162.01336 L 183.14926 164.80647 L 184.42876 167.6001 L 186.43536 170.6273 L 188.44196 173.65503 L 191.27899 176.48483 L 194.11603 179.31463 L 196.40891 180.9352 L 198.70231 182.55629 L 201.17141 183.79394 L 203.64103 185.03159 L 206.11064 185.91009 L 208.57974 186.78911 L 211.22558 187.34928 L 213.87141 187.90997 L 214.75353 188.07844 L 215.63616 188.24638 L 221.10404 188.11771 L 226.57193 187.98852 L 230.5629 186.91365 L 234.55335 185.83878 L 237.52216 184.44765 L 240.49097 183.05652 L 243.1952 181.18687 L 245.89995 179.31773 L 248.82432 176.39956 L 251.74869 173.48191 L 253.71394 170.5286 L 255.67868 167.57529 L 256.94423 164.83644 L 258.20979 162.09708 L 259.13635 158.70348 L 260.06239 155.31041 L 260.07169 147.90208 L 260.08048 140.49374 L 259.28828 137.60916 L 258.49608 134.72407 L 257.2884 131.8612 L 256.08124 128.99832 L 253.79869 125.56959 L 251.51563 122.14086 L 248.48067 119.22682 L 245.44519 116.31279 L 242.48362 114.38216 L 239.52153 112.45153 L 237.2798 111.449 L 235.03808 110.447 L 232.56898 109.70337 L 230.09936 108.95975 L 229.04103 108.77061 L 227.98269 108.58096 L 225.19992 108.17375 L 222.41663 107.76654 z M 213.87141 111.23455 L 220.04519 111.23455 L 226.21898 111.23455 L 229.10356 112.01848 L 231.98813 112.80241 L 234.79055 113.98477 L 237.59296 115.16661 L 240.66357 117.16804 L 243.73367 119.16895 L 246.28494 121.72021 L 248.8362 124.27148 L 250.61749 126.91421 L 252.39929 129.55746 L 253.14705 131.0261 L 253.89481 132.49423 L 254.73042 134.73027 L 255.56654 136.96579 L 256.23833 139.61163 L 256.91064 142.25746 L 256.89566 148.07829 L 256.88119 153.89913 L 256.10139 156.78422 L 255.32108 159.6688 L 254.12012 162.51617 L 252.91916 165.36354 L 250.91256 168.37938 L 248.90597 171.39522 L 246.5583 173.77078 L 244.21064 176.14635 L 241.91053 177.78397 L 239.61041 179.4216 L 237.13769 180.67785 L 234.66497 181.93411 L 232.06823 182.81726 L 229.47149 183.70041 L 226.65978 184.23371 L 223.84806 184.76753 L 219.74185 184.73394 L 215.63564 184.70086 L 213.21047 184.21924 L 210.78529 183.7371 L 208.44797 182.97642 L 206.11064 182.21523 L 203.32735 180.84115 L 200.54406 179.46707 L 198.2119 177.80671 L 195.88026 176.14635 L 193.5326 173.77078 L 191.18494 171.39522 L 189.17783 168.37938 L 187.17123 165.36354 L 185.97027 162.51617 L 184.76983 159.6688 L 183.98641 156.78422 L 183.203 153.89913 L 183.1968 147.90208 L 183.19111 141.90503 L 184.15023 138.45356 L 185.10986 135.00209 L 186.29997 132.4255 L 187.49059 129.84891 L 189.36128 127.05735 L 191.23197 124.26579 L 193.82354 121.69851 L 196.41511 119.13122 L 199.45575 117.14891 L 202.49691 115.16661 L 205.29932 113.98477 L 208.10225 112.80241 L 210.98683 112.01848 L 213.87141 111.23455 z M 220.3258 142.36908 L 219.21527 142.57889 L 218.10474 142.78869 L 216.97561 143.47754 L 215.84597 144.1669 L 215.28683 145.24849 L 214.72717 146.33008 L 214.69513 147.94135 L 214.66258 149.55262 L 215.35814 150.49107 L 216.05319 151.43003 L 217.21953 152.22378 L 218.38535 153.01649 L 219.8328 153.01546 L 221.27974 153.01494 L 222.42955 152.31369 L 223.57935 151.61244 L 224.30127 150.46316 L 225.02319 149.31336 L 224.88883 147.49383 L 224.75498 145.67379 L 224.13435 144.72656 L 223.5132 143.77933 L 221.9195 143.07395 L 220.3258 142.36908 z M 198.74314 163.24223 L 198.41086 163.57399 L 198.07909 163.90627 L 198.29252 164.46179 L 198.50542 165.01731 L 219.94701 164.92636 L 241.38808 164.83541 L 241.38808 164.13003 L 241.38808 163.42413 L 220.06535 163.33318 L 198.74314 163.24223 z M 207.21239 169.94207 L 206.87907 170.27539 L 206.54576 170.6087 L 206.7597 171.16577 L 206.97312 171.72284 L 220.82913 171.63034 L 234.68564 171.53836 L 234.68564 170.83246 L 234.68564 170.12708 L 220.94902 170.03458 L 207.21239 169.94207 z M 202.97699 175.94119 L 202.64471 176.27347 L 202.31243 176.60627 L 202.52585 177.16231 L 202.73927 177.71834 L 220.82913 177.62688 L 238.91898 177.53541 L 238.91898 176.83003 L 238.91898 176.12413 L 220.94798 176.03266 L 202.97699 175.94119 z " /></g></svg>
