<?xml version="1.0" encoding="UTF-8" standalone="no"?>
<!-- Created with Inkscape (http://www.inkscape.org/) -->

<svg
   width="145mm"
   height="145mm"
   viewBox="0 0 145 145"
   version="1.1"
   id="svg1"
   xml:space="preserve"
   inkscape:version="1.4 (86a8ad7, 2024-10-11)"
   sodipodi:docname="Pin.svg"
   xmlns:inkscape="http://www.inkscape.org/namespaces/inkscape"
   xmlns:sodipodi="http://sodipodi.sourceforge.net/DTD/sodipodi-0.dtd"
   xmlns="http://www.w3.org/2000/svg"
   xmlns:svg="http://www.w3.org/2000/svg"><sodipodi:namedview
     id="namedview1"
     pagecolor="#ffffff"
     bordercolor="#000000"
     borderopacity="0.25"
     inkscape:showpageshadow="2"
     inkscape:pageopacity="0.0"
     inkscape:pagecheckerboard="0"
     inkscape:deskcolor="#d1d1d1"
     inkscape:document-units="mm"
     inkscape:zoom="0.45255332"
     inkscape:cx="67.395374"
     inkscape:cy="205.50065"
     inkscape:window-width="1280"
     inkscape:window-height="730"
     inkscape:window-x="-6"
     inkscape:window-y="-6"
     inkscape:window-maximized="1"
     inkscape:current-layer="layer1" /><defs
     id="defs1" /><g
     inkscape:label="Ebene 1"
     inkscape:groupmode="layer"
     id="layer1"
     transform="translate(-28.781134,-71.893806)"
     style="display:inline"><path
       style="display:inline;fill:#3e2311;fill-opacity:1;stroke-width:0.853023"
       d="m 99.679923,207.59135 c -1.17208,-0.53235 -1.31844,-0.72547 -7.373748,-9.73021 -13.300871,-19.77944 -21.615167,-33.43478 -27.483737,-45.13908 -6.387773,-12.7398 -9.007497,-23.12559 -8.140973,-32.27445 0.582545,-6.1505 1.980004,-11.21943 4.511126,-16.36293 4.96982,-10.09921 12.732334,-17.490349 22.530074,-21.452171 5.275372,-2.133155 9.660916,-3.022826 15.779158,-3.201032 7.837097,-0.228272 13.701087,0.881746 20.278487,3.838604 12.68684,5.703354 22.05082,17.668219 25.05977,32.020249 0.72539,3.45995 0.99092,9.61859 0.57265,13.28231 -1.68795,14.78542 -11.5082,33.65355 -37.24186,71.5547 -4.2054,6.19384 -4.92767,7.09949 -6.04399,7.57848 -0.94699,0.40635 -1.34089,0.38793 -2.446957,-0.11447 z m 6.443347,-59.05762 c 9.80351,-1.8597 17.35886,-9.27971 19.87842,-19.52235 0.76519,-3.1107 0.77319,-8.48468 0.0169,-11.35926 -2.2811,-8.67029 -8.5326,-15.38319 -16.95295,-18.204286 -6.35887,-2.130409 -12.951814,-1.657306 -19.127523,1.372556 -7.554368,3.70629 -12.890433,10.88852 -14.066783,18.93366 -0.401719,2.74733 -0.164402,7.03854 0.53974,9.75964 1.480878,5.72275 4.795052,10.70104 9.514913,14.29244 2.94028,2.2373 6.43593,3.81558 10.269155,4.6365 2.491151,0.5335 7.360438,0.57818 9.928128,0.0912 z"
       id="path2-1" /></g></svg>
