<?xml version="1.0" encoding="UTF-8" standalone="no"?>
<!-- Created with Inkscape (http://www.inkscape.org/) -->

<svg
   width="143.13844mm"
   height="128.00156mm"
   viewBox="0 0 143.13844 128.00156"
   version="1.1"
   id="svg1"
   xml:space="preserve"
   inkscape:version="1.4 (86a8ad7, 2024-10-11)"
   sodipodi:docname="Pin.svg"
   xmlns:inkscape="http://www.inkscape.org/namespaces/inkscape"
   xmlns:sodipodi="http://sodipodi.sourceforge.net/DTD/sodipodi-0.dtd"
   xmlns="http://www.w3.org/2000/svg"
   xmlns:svg="http://www.w3.org/2000/svg"><sodipodi:namedview
     id="namedview1"
     pagecolor="#ffffff"
     bordercolor="#000000"
     borderopacity="0.25"
     inkscape:showpageshadow="2"
     inkscape:pageopacity="0.0"
     inkscape:pagecheckerboard="0"
     inkscape:deskcolor="#d1d1d1"
     inkscape:document-units="mm"
     inkscape:zoom="0.22627666"
     inkscape:cx="-351.33982"
     inkscape:cy="-238.64591"
     inkscape:window-width="1280"
     inkscape:window-height="730"
     inkscape:window-x="-6"
     inkscape:window-y="-6"
     inkscape:window-maximized="1"
     inkscape:current-layer="layer1" /><defs
     id="defs1" /><g
     inkscape:label="Ebene 1"
     inkscape:groupmode="layer"
     id="layer1"
     transform="translate(-29.46609,-79.919782)"><path
       style="fill:#000000;stroke-width:0.813838"
       d="m 100.13623,205.69673 c -1.118244,-0.5079 -1.257874,-0.69215 -7.035027,-9.28324 -12.689877,-18.87085 -20.622245,-31.89891 -26.221234,-43.06556 -6.094342,-12.15458 -8.593726,-22.06328 -7.767007,-30.79188 0.555785,-5.86797 1.88905,-10.70405 4.303902,-15.61128 4.741524,-9.635293 12.147457,-16.68691 21.495124,-20.466741 5.033041,-2.035165 9.217129,-2.883968 15.054318,-3.053988 7.477104,-0.217786 13.071724,0.841242 19.346974,3.662273 12.10406,5.441362 21.03789,16.856606 23.90862,30.549366 0.69207,3.30101 0.9454,9.17675 0.54634,12.67217 -1.61041,14.10623 -10.97955,32.10763 -35.5311,68.26774 -4.01222,5.90931 -4.70131,6.77336 -5.76635,7.23035 -0.90349,0.38768 -1.2793,0.37011 -2.33456,-0.10921 z M 106.2836,149.352 c 9.35317,-1.77427 16.56146,-8.85344 18.96528,-18.62557 0.73004,-2.9678 0.73767,-8.09492 0.0161,-10.83745 -2.17631,-8.27201 -8.14064,-14.67656 -16.17419,-17.36806 -6.06677,-2.03255 -12.356864,-1.58118 -18.248884,1.30951 -7.207348,3.53603 -12.298293,10.38835 -13.420606,18.06392 -0.383266,2.62113 -0.15685,6.71522 0.514946,9.31132 1.412852,5.45987 4.574785,10.20947 9.077833,13.6359 2.805214,2.13452 6.140287,3.6403 9.797427,4.42351 2.37672,0.509 7.022334,0.55162 9.472074,0.087 z"
       id="path2" /></g></svg>
