<?xml version="1.0" encoding="UTF-8" standalone="no"?>
<!-- Created with Inkscape (http://www.inkscape.org/) -->

<svg
   width="143.13844mm"
   height="128.00156mm"
   viewBox="0 0 143.13844 128.00156"
   version="1.1"
   id="svg1"
   xml:space="preserve"
   inkscape:version="1.4 (86a8ad7, 2024-10-11)"
   sodipodi:docname="Ringe.svg"
   xmlns:inkscape="http://www.inkscape.org/namespaces/inkscape"
   xmlns:sodipodi="http://sodipodi.sourceforge.net/DTD/sodipodi-0.dtd"
   xmlns="http://www.w3.org/2000/svg"
   xmlns:svg="http://www.w3.org/2000/svg"><sodipodi:namedview
     id="namedview1"
     pagecolor="#ffffff"
     bordercolor="#000000"
     borderopacity="0.25"
     inkscape:showpageshadow="2"
     inkscape:pageopacity="0.0"
     inkscape:pagecheckerboard="0"
     inkscape:deskcolor="#d1d1d1"
     inkscape:document-units="mm"
     inkscape:zoom="0.45255332"
     inkscape:cx="98.330955"
     inkscape:cy="121.53264"
     inkscape:window-width="1280"
     inkscape:window-height="730"
     inkscape:window-x="-6"
     inkscape:window-y="-6"
     inkscape:window-maximized="1"
     inkscape:current-layer="layer1" /><defs
     id="defs1" /><g
     inkscape:label="Ebene 1"
     inkscape:groupmode="layer"
     id="layer1"
     transform="translate(-29.46609,-79.919782)"><path
       id="path2"
       style="display:inline;fill:#000000;stroke-width:0.724227"
       d="m 114.91093,80.38332 -1.84123,1.779219 c -1.01278,0.978794 -2.27288,2.158467 -2.79983,2.621029 -0.52695,0.462563 -2.18687,2.033836 -3.68866,3.491776 l -2.73059,2.650485 v 1.571997 1.57148 l 5.79655,5.823934 c 3.18806,3.20322 6.21383,6.15946 6.72362,6.56962 l 0.92656,0.74621 0.16846,0.19327 c -24.482931,6.92772 -37.906162,35.72173 -26.249562,58.48791 1.555246,3.03748 5.909508,8.62176 7.557678,10.00197 l 1.685694,1.41128 c 1.22362,-3.70572 1.62569,-5.43165 2.10426,-9.77356 l -0.46664,-0.57206 c -1.14452,-1.40316 -2.882084,-4.41886 -3.932574,-6.82491 l -1.14257,-2.61741 -0.738457,-3.07578 -0.738456,-3.07578 -0.02481,-2.32337 c -0.398105,-37.67484 50.631582,-47.94147 63.502072,-12.77597 l 0.86765,2.3704 0.45475,2.49391 c 2.71192,14.87378 -3.89069,28.36875 -17.26665,35.2919 l -1.91409,0.99064 -4.1584,1.13894 -4.15789,1.13844 -2.15232,0.12247 c -6.28717,0.35744 -11.86471,-1.19627 -17.30282,-3.39204 l -2.86391,-1.15652 c -0.68821,2.98057 -1.54556,5.4739 -2.96881,8.03052 l 1.52497,0.84749 c 6.77619,3.76348 15.16037,5.28035 24.22333,4.48345 l 2.32802,-0.20464 3.51141,-0.96273 3.5109,-0.96273 1.9327,-0.86765 c 29.64225,-13.31033 34.32749,-52.07559 8.65063,-71.57341 -3.3006,-2.50633 -7.15675,-4.48136 -11.26649,-5.86011 l 0.16381,-0.2837 5.91437,-5.85908 c 3.25282,-3.222302 6.45135,-6.353221 7.10758,-6.957711 l 1.19321,-1.099157 V 92.44925 90.904641 l -2.62517,-2.626196 c -1.44369,-1.444325 -3.8703,-3.811547 -5.39243,-5.260661 l -2.76728,-2.634464 h -15.32929 z m 4.08812,4.599202 h 2.70113 2.70061 l -0.18448,0.239779 c -0.10144,0.131738 -0.85449,1.080326 -1.67329,2.107881 -1.70989,2.14589 -1.69023,2.13536 -2.01073,1.053683 -0.13272,-0.447898 -0.53197,-1.396501 -0.88728,-2.107882 z m 19.26033,0 h 2.59932 l -0.12919,0.431498 c -0.0712,0.237127 -0.47175,1.314954 -0.88987,2.395203 -0.87344,2.256569 -0.77342,2.154709 -1.29294,1.314132 -0.22083,-0.357314 -0.96077,-1.399762 -1.64435,-2.316655 -0.68359,-0.916893 -1.24282,-1.70246 -1.24282,-1.74563 0,-0.04318 1.16999,-0.07855 2.59985,-0.07855 z m -8.54057,0.19172 c 0.088,0 0.44425,0.366507 0.7922,0.81442 0.34795,0.4479 1.34712,1.621685 2.22002,2.608627 0.87288,0.986944 1.58698,1.870821 1.58698,1.964221 0,0.09355 -1.98393,0.169498 -4.42298,0.169498 -2.43276,0 -4.39453,-0.06456 -4.35943,-0.14366 0.18423,-0.41451 4.04713,-5.413106 4.18321,-5.413106 z m 15.30759,0.905371 0.60462,0.509013 c 1.40228,1.179941 4.01629,3.649253 4.01629,3.794083 0,0.08623 -1.4573,0.157097 -3.23856,0.157097 h -3.23856 l 0.82269,-1.827279 c 0.45257,-1.004905 0.8701,-2.008274 0.9281,-2.229838 z m -30.26378,0.671277 c 0.0725,-0.02868 0.52922,0.811867 1.01544,1.868103 l 0.88418,1.920813 h -2.97552 -2.97553 l 1.96008,-1.86862 c 1.07784,-1.027544 2.01885,-1.891586 2.09135,-1.920296 z m 26.74049,8.225337 3.59151,0.03307 c 1.97529,0.0183 3.5704,0.09028 3.545,0.15968 -0.0701,0.19135 -12.59716,12.89107 -12.59716,12.7708 0,-0.22925 2.56584,-6.44555 3.14502,-7.61969 0.34008,-0.689393 1.00027,-2.174136 1.4671,-3.299026 z m -23.01979,0.06666 0.65888,1.437121 c 0.36222,0.79042 1.42783,3.104913 2.36833,5.143869 0.94049,2.03896 1.93254,4.26349 2.20451,4.94285 0.27197,0.67938 0.45618,1.27344 0.40928,1.32034 -0.11884,0.11884 -5.58561,-5.2692 -9.47591,-9.339484 l -3.24321,-3.393592 3.53932,-0.05529 z m 11.61893,0.0956 c 3.47787,0 6.32365,0.04744 6.32365,0.105937 0,0.05843 -0.57211,1.502773 -1.27124,3.209623 -0.69911,1.706859 -1.73628,4.267849 -2.30477,5.690609 -0.5685,1.42278 -1.39014,3.34113 -1.82625,4.26331 -0.43609,0.92216 -0.85663,1.6769 -0.93483,1.6769 -0.12045,0 -1.32756,-2.67273 -1.32756,-2.93936 0,-0.0502 -1.12124,-2.72706 -2.49132,-5.94899 -1.37006,-3.221941 -2.49081,-5.903293 -2.49081,-5.958293 0,-0.0549 2.84526,-0.09974 6.32313,-0.09974 z" /><path
       style="display:inline;fill:#000000;stroke-width:0.724227"
       d="m 81.124549,206.62344 c -10.919693,2.11401 -23.550158,-0.76057 -32.311207,-7.35377 -25.760944,-19.38659 -21.243274,-58.17128 8.341137,-71.60969 l 1.92899,-0.87621 3.506955,-0.97791 3.506966,-0.97791 2.327134,-0.21478 c 9.059425,-0.83608 17.432529,0.67634 24.242254,4.37881 l 1.345825,0.73173 c 0,0 -1.13036,2.51321 -1.615365,3.93784 -0.485005,1.42464 -1.247091,4.58539 -1.247091,4.58539 l -2.757657,-1.51491 c -5.140147,-2.82372 -11.031714,-3.70184 -17.317285,-3.31721 l -2.151385,0.13164 -4.15338,1.15659 -4.153385,1.15657 -1.909774,0.99896 c -13.345902,6.98094 -19.889883,20.50447 -17.113657,35.36637 l 0.465494,2.49193 0.877891,2.36686 c 13.022442,35.10952 64.007121,24.62217 63.446081,-13.05061 l -0.0346,-2.32317 -0.75177,-3.07266 -0.75176,-3.07266 -1.15412,-2.61254 c -1.06089,-2.40149 -2.81158,-5.40944 -3.962149,-6.80763 l -0.249882,-0.42389 c 0,0 0.04675,-2.3817 0.972371,-5.83225 0.92562,-3.45054 1.16804,-3.91961 1.16804,-3.91961 l 1.39411,1.22693 c 1.61379,1.42026 6.0326,6.93856 7.60097,9.96929 12.30463,23.77776 -2.83242,54.29791 -29.489668,59.45867 z"
       id="path1"
       sodipodi:nodetypes="cscccccsczcsscccsscsscccscczcsccc" /></g></svg>
