<?xml version="1.0" encoding="UTF-8" standalone="no"?>
<!-- Created with Inkscape (http://www.inkscape.org/) -->

<svg
   width="145mm"
   height="145mm"
   viewBox="0 0 145 145"
   version="1.1"
   id="svg1"
   xml:space="preserve"
   inkscape:version="1.4 (86a8ad7, 2024-10-11)"
   sodipodi:docname="Ringe.svg"
   xmlns:inkscape="http://www.inkscape.org/namespaces/inkscape"
   xmlns:sodipodi="http://sodipodi.sourceforge.net/DTD/sodipodi-0.dtd"
   xmlns="http://www.w3.org/2000/svg"
   xmlns:svg="http://www.w3.org/2000/svg"><sodipodi:namedview
     id="namedview1"
     pagecolor="#ffffff"
     bordercolor="#000000"
     borderopacity="0.25"
     inkscape:showpageshadow="2"
     inkscape:pageopacity="0.0"
     inkscape:pagecheckerboard="0"
     inkscape:deskcolor="#d1d1d1"
     inkscape:document-units="mm"
     inkscape:zoom="0.45255332"
     inkscape:cx="67.395374"
     inkscape:cy="205.50065"
     inkscape:window-width="1280"
     inkscape:window-height="730"
     inkscape:window-x="-6"
     inkscape:window-y="-6"
     inkscape:window-maximized="1"
     inkscape:current-layer="layer1" /><defs
     id="defs1" /><g
     inkscape:label="Ebene 1"
     inkscape:groupmode="layer"
     id="layer1"
     transform="translate(-28.781134,-71.893806)"
     style="display:inline"><path
       id="path2"
       style="display:inline;fill:#3e2311;fill-opacity:1;stroke-width:0.711405"
       d="m 115.31008,80.454513 c -0.0505,0.04924 -0.10125,0.09847 -0.15177,0.147716 -3.64815,3.546004 -7.43489,6.965056 -11.05638,10.526929 -0.55405,0.899118 -0.1535,2.007713 -0.27259,2.998993 0.0683,0.554477 -0.22613,1.258662 0.3599,1.598989 3.97848,3.961298 7.87247,8.00961 11.96297,11.85537 -9.9889,3.32615 -18.493735,10.65771 -23.526957,19.87415 -7.343567,-3.48641 -15.713334,-4.31763 -23.730515,-3.45129 -1.835478,0.079 -3.68449,0.8586 -5.496461,1.29088 -1.779023,0.44802 -3.542885,0.98036 -5.169556,1.84416 -9.092399,4.17494 -16.771484,11.50409 -21.013249,20.60208 -5.010637,10.52146 -5.367631,23.17814 -0.786297,33.91227 3.6763,8.69703 10.37807,16.1132 18.706138,20.57416 8.571111,4.50701 18.708087,6.09816 28.217328,4.17057 10.0786,-2.08384 19.199429,-8.17448 25.163519,-16.53964 1.06338,-1.46661 2.04005,-2.99842 2.9071,-4.58985 7.34493,3.5118 15.72086,4.31577 23.74575,3.47919 2.20216,-0.19254 4.26642,-1.06988 6.41017,-1.55229 2.3672,-0.56374 4.52538,-1.72386 6.67971,-2.81777 8.03219,-4.29396 14.72834,-11.13251 18.58888,-19.40512 4.91006,-10.34587 5.34285,-22.74555 0.99391,-33.35796 -3.75538,-9.22772 -10.89645,-17.07921 -19.80513,-21.56248 -1.27222,-0.62684 -2.57191,-1.19871 -3.90052,-1.69594 4.37932,-4.31315 8.6917,-8.697082 13.18633,-12.89242 0.35846,-1.041637 0.0498,-2.161538 0.16701,-3.237572 0.0726,-0.62833 -0.20164,-1.176748 -0.71472,-1.537059 -3.44796,-3.468165 -6.96129,-6.870941 -10.51069,-10.236066 z m 4.43859,5.557882 h 2.6533 2.6528 l -0.18121,0.235534 c -0.0996,0.129405 -0.83936,1.0612 -1.64366,2.070563 -1.67962,2.107899 -1.66031,2.097555 -1.97513,1.035028 -0.13037,-0.439968 -0.52256,-1.371777 -0.87158,-2.070564 z m 18.91934,0 h 2.5533 l -0.12691,0.423859 c -0.0699,0.232928 -0.46339,1.291673 -0.87411,2.352798 -0.85798,2.216618 -0.75973,2.116561 -1.27005,1.290866 -0.21692,-0.350988 -0.94375,-1.37498 -1.61523,-2.275641 -0.67149,-0.90066 -1.22082,-1.672319 -1.22082,-1.714725 0,-0.04241 1.14927,-0.07716 2.55382,-0.07716 z m -8.38936,0.188326 c 0.0864,0 0.43638,0.360018 0.77817,0.800001 0.34179,0.43997 1.32326,1.592975 2.18071,2.562444 0.85743,0.969471 1.55889,1.837699 1.55889,1.929446 0,0.09189 -1.94881,0.166497 -4.34468,0.166497 -2.38969,0 -4.31672,-0.06342 -4.28224,-0.141117 0.18097,-0.407171 3.97548,-5.317271 4.10915,-5.317271 z m 15.03658,0.889342 0.59391,0.500001 c 1.37745,1.159051 3.94518,3.584646 3.94518,3.726912 0,0.0847 -1.4315,0.154316 -3.18122,0.154316 h -3.18123 L 144.3,89.676363 c 0.44456,-0.987114 0.8547,-1.972719 0.91168,-2.19036 z m -29.72799,0.659392 c 0.0712,-0.02817 0.51985,0.797494 0.99746,1.83503 l 0.86853,1.886807 h -2.92285 -2.92285 l 1.92539,-1.835538 c 1.05876,-1.009352 1.9831,-1.858097 2.05432,-1.886299 z m 26.26707,8.079715 3.52792,0.03249 c 1.94032,0.01798 3.50719,0.08868 3.48224,0.156853 -0.0689,0.187962 -12.37414,12.662837 -12.37414,12.544697 0,-0.22519 2.52043,-6.33143 3.08935,-7.48478 0.33406,-0.6772 0.98256,-2.135648 1.44112,-3.240623 z m -22.61224,0.06548 0.64721,1.411678 c 0.35581,0.776426 1.40255,3.049952 2.3264,5.052812 0.92384,2.00286 1.89834,4.18801 2.16549,4.85534 0.26716,0.66734 0.44809,1.25088 0.40202,1.29695 -0.11673,0.11674 -5.48671,-5.1759 -9.30813,-9.174132 l -3.1858,-3.333511 3.47665,-0.05431 z m 11.41322,0.09391 c 3.4163,0 6.2117,0.0466 6.2117,0.104062 0,0.05739 -0.56199,1.476168 -1.24874,3.152799 -0.68673,1.676649 -1.70554,4.192299 -2.26396,5.589869 -0.55844,1.39759 -1.36552,3.28197 -1.79391,4.18782 -0.42837,0.90583 -0.84147,1.64721 -0.91828,1.64721 -0.11832,0 -1.30407,-2.62541 -1.30407,-2.88732 0,-0.0493 -1.10139,-2.67877 -2.44721,-5.84366 -1.34581,-3.164908 -2.4467,-5.798783 -2.4467,-5.852809 0,-0.05393 2.79487,-0.09797 6.21117,-0.09797 z m -1.15786,20.21984 c 7.97279,-0.0856 16.08888,3.13174 21.58583,9.01424 3.7505,3.93755 6.32152,8.89792 7.87058,14.08074 0.5995,2.93063 1.01843,5.75459 0.9528,8.74673 -0.0766,6.44678 -2.22493,12.9851 -6.26804,18.08532 -3.33746,4.26434 -7.82863,7.58639 -12.76602,9.76094 -2.33708,0.65597 -4.68197,1.28798 -7.02489,1.9269 -1.99542,0.44693 -4.01777,0.35029 -6.06144,0.28935 -4.19353,-0.19122 -8.36617,-1.36882 -12.34369,-2.92996 2.58099,-9.76767 1.50975,-20.59778 -3.50711,-29.42748 -1.80999,-3.04253 -4.04941,-5.81197 -6.40052,-8.44876 -1.03827,-1.04494 -2.17632,-1.98279 -3.27666,-2.96041 -1.30737,3.23778 -2.20122,6.65024 -2.642644,10.11272 -0.03724,0.75956 -0.240472,1.62755 0.381726,2.21066 2.076508,2.88076 3.706918,6.07022 4.954328,9.38886 0.42981,1.98281 1.08223,3.94218 1.3467,5.93148 0.28882,6.59376 -0.92342,13.38479 -4.33656,19.1036 -4.286589,7.3619 -11.777228,12.65317 -20.048269,14.56045 -7.075899,1.68482 -14.68048,0.96684 -21.19193,-2.34468 -6.478768,-3.25924 -11.442114,-9.1076 -14.155872,-15.78176 -0.833195,-2.01018 -1.594408,-3.99642 -1.861934,-6.16906 -0.724147,-4.16051 -0.8021,-8.46035 0.07767,-12.5584 1.421772,-7.04652 5.543281,-13.46906 11.29749,-17.76502 2.168641,-1.61911 4.481824,-3.09387 6.986311,-4.13249 2.244851,-0.68177 4.524035,-1.24242 6.773114,-1.9122 1.897753,-0.48552 3.999655,-0.39851 6.004075,-0.43705 4.429055,0.0434 8.821176,0.86721 12.778712,2.91269 -2.61679,9.80309 -1.539255,20.68867 3.513207,29.5478 1.799433,3.00593 3.974903,5.78039 6.32032,8.37565 1.131902,1.10306 2.389026,2.06278 3.590356,3.08732 1.25462,-3.51014 2.20376,-7.14349 2.55432,-10.86094 0.20281,-0.6773 -0.16467,-1.29825 -0.6406,-1.74518 -2.12797,-2.81172 -3.6532,-6.03972 -4.900014,-9.32033 -0.424179,-1.98131 -1.064401,-3.92967 -1.317262,-5.93961 -0.185667,-5.3202 0.501173,-10.74434 2.667016,-15.64471 2.3451,-5.50201 6.45167,-10.31951 11.52489,-13.55282 3.56877,-2.31286 7.82494,-3.98944 12.14267,-4.73098 1.76639,-0.30144 3.58193,-0.46632 5.42134,-0.47361 z" /></g></svg>
