<?xml version="1.0" encoding="UTF-8" standalone="no"?>
<!-- Created with Inkscape (http://www.inkscape.org/) -->

<svg
   width="143.13844mm"
   height="128.00156mm"
   viewBox="0 0 143.13844 128.00156"
   version="1.1"
   id="svg1"
   xml:space="preserve"
   inkscape:version="1.4 (86a8ad7, 2024-10-11)"
   sodipodi:docname="Ringe.svg"
   xmlns:inkscape="http://www.inkscape.org/namespaces/inkscape"
   xmlns:sodipodi="http://sodipodi.sourceforge.net/DTD/sodipodi-0.dtd"
   xmlns="http://www.w3.org/2000/svg"
   xmlns:svg="http://www.w3.org/2000/svg"><sodipodi:namedview
     id="namedview1"
     pagecolor="#ffffff"
     bordercolor="#000000"
     borderopacity="0.25"
     inkscape:showpageshadow="2"
     inkscape:pageopacity="0.0"
     inkscape:pagecheckerboard="0"
     inkscape:deskcolor="#d1d1d1"
     inkscape:document-units="mm"
     inkscape:zoom="0.45255332"
     inkscape:cx="98.330955"
     inkscape:cy="121.53264"
     inkscape:window-width="1280"
     inkscape:window-height="730"
     inkscape:window-x="-6"
     inkscape:window-y="-6"
     inkscape:window-maximized="1"
     inkscape:current-layer="layer1" /><defs
     id="defs1" /><g
     inkscape:label="Ebene 1"
     inkscape:groupmode="layer"
     id="layer1"
     transform="translate(-29.46609,-79.919782)"><path
       id="path2"
       style="display:inline;fill:#000000;stroke-width:0.724227"
       d="M 118.4188 80.38332 L 116.57757 82.162539 C 115.56479 83.141333 114.30469 84.321006 113.77774 84.783568 C 113.25079 85.246131 111.59087 86.817404 110.08908 88.275344 L 107.35849 90.925829 L 107.35849 92.497826 L 107.35849 94.069306 L 113.15504 99.89324 C 116.3431 103.09646 119.36887 106.0527 119.87866 106.46286 L 120.80522 107.20907 L 120.97368 107.40234 C 96.490753 114.33006 83.067522 143.12407 94.724122 165.89025 C 96.279368 168.92773 100.63363 174.51201 102.2818 175.89222 L 103.96749 177.3035 C 105.19111 173.59778 105.59318 171.87185 106.07175 167.52994 L 105.60511 166.95788 C 104.46059 165.55472 102.72303 162.53902 101.67254 160.13297 L 100.52997 157.51556 L 99.791513 154.43978 L 99.053057 151.364 L 99.028252 149.04063 C 98.630147 111.36579 149.65983 101.09916 162.53032 136.26466 L 163.39797 138.63506 L 163.85272 141.12897 C 166.56464 156.00275 159.96203 169.49772 146.58607 176.42087 L 144.67198 177.41151 L 140.51358 178.55045 L 136.35569 179.68889 L 134.20337 179.81136 C 127.9162 180.1688 122.33866 178.61509 116.90055 176.41932 L 114.03664 175.2628 C 113.34843 178.24337 112.49108 180.7367 111.06783 183.29332 L 112.5928 184.14081 C 119.36899 187.90429 127.75317 189.42116 136.81613 188.62426 L 139.14415 188.41962 L 142.65556 187.45689 L 146.16646 186.49416 L 148.09916 185.62651 C 177.74141 172.31618 182.42665 133.55092 156.74979 114.0531 C 153.44919 111.54677 149.59304 109.57174 145.4833 108.19299 L 145.64711 107.90929 L 151.56148 102.05021 C 154.8143 98.827908 158.01283 95.696989 158.66906 95.092499 L 159.86227 93.993342 L 159.86227 92.44925 L 159.86227 90.904641 L 157.2371 88.278445 C 155.79341 86.83412 153.3668 84.466898 151.84467 83.017784 L 149.07739 80.38332 L 133.7481 80.38332 L 118.4188 80.38332 z M 122.50692 84.982522 L 125.20805 84.982522 L 127.90866 84.982522 L 127.72418 85.222301 C 127.62274 85.354039 126.86969 86.302627 126.05089 87.330182 C 124.341 89.476072 124.36066 89.465542 124.04016 88.383865 C 123.90744 87.935967 123.50819 86.987364 123.15288 86.275983 L 122.50692 84.982522 z M 141.76725 84.982522 L 144.36657 84.982522 L 144.23738 85.41402 C 144.16615 85.651147 143.76563 86.728974 143.34751 87.809223 C 142.47407 90.065792 142.57409 89.963932 142.05457 89.123355 C 141.83374 88.766041 141.0938 87.723593 140.41022 86.8067 C 139.72663 85.889807 139.1674 85.10424 139.1674 85.06107 C 139.1674 85.01789 140.33739 84.982522 141.76725 84.982522 z M 133.22668 85.174242 C 133.31472 85.174242 133.67093 85.540749 134.01888 85.988662 C 134.36683 86.436562 135.366 87.610347 136.2389 88.597289 C 137.11178 89.584233 137.82588 90.46811 137.82588 90.56151 C 137.82588 90.65506 135.84195 90.731008 133.4029 90.731008 C 130.97014 90.731008 129.00837 90.666448 129.04347 90.587348 C 129.2277 90.172838 133.0906 85.174242 133.22668 85.174242 z M 148.53427 86.079613 L 149.13889 86.588626 C 150.54117 87.768567 153.15518 90.237879 153.15518 90.382709 C 153.15518 90.468939 151.69788 90.539806 149.91662 90.539806 L 146.67806 90.539806 L 147.50075 88.712527 C 147.95332 87.707622 148.37085 86.704253 148.42885 86.482689 L 148.53427 86.079613 z M 118.27049 86.75089 C 118.34296 86.722209 118.79971 87.562757 119.28593 88.618993 L 120.17011 90.539806 L 117.19459 90.539806 L 114.21906 90.539806 L 116.17914 88.671186 C 117.25698 87.643642 118.19799 86.7796 118.27049 86.75089 z M 145.01098 94.976227 L 148.60249 95.0093 C 150.57778 95.0276 152.17289 95.09958 152.14749 95.16898 C 152.07738 95.36033 139.55033 108.06005 139.55033 107.93978 C 139.55033 107.71053 142.11617 101.49423 142.69535 100.32009 C 143.03543 99.630697 143.69562 98.145954 144.16245 97.021064 L 145.01098 94.976227 z M 121.99119 95.04289 L 122.65007 96.480011 C 123.01229 97.270431 124.0779 99.584924 125.0184 101.62388 C 125.95889 103.66284 126.95094 105.88737 127.22291 106.56673 C 127.49488 107.24611 127.67909 107.84017 127.63219 107.88707 C 127.51335 108.00591 122.04658 102.61787 118.15628 98.547586 L 114.91307 95.153994 L 118.45239 95.0987 L 121.99119 95.04289 z M 133.61012 95.138491 C 137.08799 95.138491 139.93377 95.185928 139.93377 95.244428 C 139.93377 95.302858 139.36166 96.747201 138.66253 98.454051 C 137.96342 100.16091 136.92625 102.7219 136.35776 104.14466 C 135.78926 105.56744 134.96762 107.48579 134.53151 108.40797 C 134.09542 109.33013 133.67488 110.08487 133.59668 110.08487 C 133.47623 110.08487 132.26912 107.41214 132.26912 107.14551 C 132.26912 107.09528 131.14788 104.41845 129.7778 101.19652 C 128.40774 97.974579 127.28699 95.293227 127.28699 95.238227 C 127.28699 95.183327 130.13225 95.138491 133.61012 95.138491 z " /><path
       style="display:inline;fill:#000000;stroke-width:0.724227"
       d="m 81.124549,206.62344 c -10.919693,2.11401 -23.550158,-0.76057 -32.311207,-7.35377 -25.760944,-19.38659 -21.243274,-58.17128 8.341137,-71.60969 l 1.92899,-0.87621 3.506955,-0.97791 3.506966,-0.97791 2.327134,-0.21478 c 9.059425,-0.83608 17.432529,0.67634 24.242254,4.37881 l 1.345825,0.73173 c 0,0 -1.13036,2.51321 -1.615365,3.93784 -0.485005,1.42464 -1.247091,4.58539 -1.247091,4.58539 l -2.757657,-1.51491 c -5.140147,-2.82372 -11.031714,-3.70184 -17.317285,-3.31721 l -2.151385,0.13164 -4.15338,1.15659 -4.153385,1.15657 -1.909774,0.99896 c -13.345902,6.98094 -19.889883,20.50447 -17.113657,35.36637 l 0.465494,2.49193 0.877891,2.36686 c 13.022442,35.10952 64.007121,24.62217 63.446081,-13.05061 l -0.0346,-2.32317 -0.75177,-3.07266 -0.75176,-3.07266 -1.15412,-2.61254 c -1.06089,-2.40149 -2.81158,-5.40944 -3.962149,-6.80763 l -0.249882,-0.42389 c 0,0 0.04675,-2.3817 0.972371,-5.83225 0.92562,-3.45054 1.16804,-3.91961 1.16804,-3.91961 l 1.39411,1.22693 c 1.61379,1.42026 6.0326,6.93856 7.60097,9.96929 12.30463,23.77776 -2.83242,54.29791 -29.489668,59.45867 z"
       id="path1"
       sodipodi:nodetypes="cscccccsczcsscccsscsscccscczcsccc" /></g></svg>
