<?xml version="1.0" encoding="UTF-8" standalone="no"?>
<!-- Created with Inkscape (http://www.inkscape.org/) -->

<svg
   width="143.13844mm"
   height="128.00156mm"
   viewBox="0 0 143.13844 128.00156"
   version="1.1"
   id="svg1"
   xml:space="preserve"
   inkscape:version="1.4 (86a8ad7, 2024-10-11)"
   sodipodi:docname="Ringe.svg"
   xmlns:inkscape="http://www.inkscape.org/namespaces/inkscape"
   xmlns:sodipodi="http://sodipodi.sourceforge.net/DTD/sodipodi-0.dtd"
   xmlns="http://www.w3.org/2000/svg"
   xmlns:svg="http://www.w3.org/2000/svg"><sodipodi:namedview
     id="namedview1"
     pagecolor="#ffffff"
     bordercolor="#000000"
     borderopacity="0.25"
     inkscape:showpageshadow="2"
     inkscape:pageopacity="0.0"
     inkscape:pagecheckerboard="0"
     inkscape:deskcolor="#d1d1d1"
     inkscape:document-units="mm"
     inkscape:zoom="0.45255332"
     inkscape:cx="98.330955"
     inkscape:cy="121.53264"
     inkscape:window-width="1280"
     inkscape:window-height="730"
     inkscape:window-x="-6"
     inkscape:window-y="-6"
     inkscape:window-maximized="1"
     inkscape:current-layer="layer1" /><defs
     id="defs1" /><g
     inkscape:label="Ebene 1"
     inkscape:groupmode="layer"
     id="layer1"
     transform="translate(-29.46609,-79.919782)"><path
       id="path2"
       style="display:inline;fill:#000000;stroke-width:0.706094"
       d="m 113.99142,81.670834 c -3.62092,3.519531 -7.37959,6.913193 -10.97405,10.448476 -0.5499,0.892406 -0.15219,1.992803 -0.27039,2.976682 0.0678,0.550339 -0.22473,1.249535 0.35693,1.587321 3.94878,3.931737 7.81393,7.949577 11.8739,11.766627 -9.91433,3.30133 -18.355852,10.57822 -23.351499,19.72585 -7.288743,-3.46038 -15.596014,-4.28557 -23.553343,-3.42569 -1.821775,0.0784 -3.656769,0.85235 -5.455212,1.2814 -1.765742,0.44468 -3.516574,0.97287 -5.131101,1.83022 -9.02452,4.14377 -16.646152,11.4181 -20.856251,20.44817 -4.973229,10.44291 -5.327463,23.00537 -0.780331,33.65936 3.648855,8.63211 10.300443,15.99274 18.566338,20.4204 8.507123,4.47336 18.568582,6.0526 28.006832,4.1394 10.003358,-2.06828 19.056057,-8.11333 24.975627,-16.41603 1.05544,-1.45567 2.02445,-2.97579 2.88503,-4.55535 7.2901,3.48559 15.60394,4.28329 23.56892,3.45295 2.18572,-0.1911 4.23447,-1.06206 6.3622,-1.54087 2.34954,-0.55953 4.49158,-1.71098 6.62983,-2.79672 7.97223,-4.2619 14.61816,-11.04924 18.44988,-19.26009 4.87341,-10.26863 5.30314,-22.57561 0.98667,-33.10879 -3.72735,-9.15884 -10.81512,-16.95178 -19.65729,-21.40157 -1.26273,-0.62217 -2.55261,-1.18981 -3.8713,-1.68334 4.34663,-4.28095 8.62666,-8.63236 13.08773,-12.796384 0.35579,-1.03386 0.0496,-2.14518 0.16593,-3.21318 0.072,-0.62364 -0.20019,-1.167721 -0.70944,-1.525342 -3.42221,-3.442273 -6.90953,-6.820121 -10.43243,-10.160125 -10.24092,0 -20.48183,0 -30.72275,0 -0.0501,0.04887 -0.10029,0.09775 -0.15043,0.146625 z m 7.16179,6.402001 c 0.72816,-0.100354 0.38229,0.221015 0.0476,0.611256 -0.38334,0.754352 -0.59255,0.440602 -0.79276,-0.184302 -0.52854,-0.727832 0.30474,-0.324032 0.74516,-0.426954 z m 16.1859,0 c 0.70366,-0.06002 1.36157,-0.08822 0.8005,0.731163 -0.16165,0.727453 -0.40054,0.939885 -0.75863,0.156894 -0.19893,-0.372834 -1.05232,-1.066408 -0.15236,-0.88673 0.0368,0.0028 0.0736,-0.0017 0.11049,-0.0014 z m -7.78256,1.315818 c 0.62666,0.733021 1.25762,1.461046 1.88899,2.189858 -1.52736,0.04254 -3.05604,0.04258 -4.58348,0.0038 0.71334,-0.950724 1.4345,-1.895794 2.18415,-2.818251 0.17012,0.208196 0.34023,0.41639 0.51034,0.624585 z m 15.44325,1.01876 c 0.25292,0.308225 1.0366,0.813925 0.99553,1.011912 -0.76281,0.009 -1.52566,0.0068 -2.2885,0.0068 0.22932,-0.516757 0.46657,-1.030712 0.67981,-1.553847 0.20439,0.178362 0.40877,0.356724 0.61316,0.535087 z m -30.43521,0.816912 c 0.1468,0.453025 -0.9965,0.08094 -1.36913,0.201848 -0.1603,-0.161583 0.719,-0.726948 0.96734,-1.045419 0.13393,0.281191 0.26786,0.562381 0.40179,0.843571 z m 29.40883,6.624794 c 0.24,0.113013 1.55457,-0.216897 0.98799,0.228584 -2.3169,2.386107 -4.65721,4.749297 -6.99962,7.110297 1.05751,-2.46051 2.19815,-4.88486 3.21242,-7.363635 0.93307,0.0083 1.86614,0.01651 2.79921,0.02475 z m -26.22306,0.832146 c 1.03065,2.244745 2.06955,4.485375 3.08865,6.735245 -2.48332,-2.4439 -4.91189,-4.94289 -7.31603,-7.464563 1.28916,-0.01967 2.57831,-0.03935 3.86748,-0.05903 0.11997,0.262783 0.23993,0.525567 0.3599,0.788348 z m 11.62147,-0.706466 c 1.56021,0.0091 3.12068,0.0037 4.68058,0.03999 -1.54194,3.751211 -2.96314,7.554481 -4.65011,11.246351 -1.48013,-3.78038 -3.12812,-7.49283 -4.68058,-11.244447 1.5499,-0.03204 3.09994,-0.037 4.65011,-0.0419 z m -1.14824,19.036531 c 7.91327,-0.0849 15.96853,3.10844 21.42445,8.94703 3.7225,3.90814 6.27413,8.83135 7.81162,13.97548 0.59502,2.90875 1.01121,5.71166 0.94606,8.68147 -0.0761,6.39865 -2.20825,12.88837 -6.22118,17.95052 -3.31254,4.2325 -7.77027,7.52949 -12.67081,9.6878 -2.31963,0.65107 -4.64725,1.27844 -6.97268,1.9126 -1.98052,0.44359 -3.98764,0.34793 -6.01605,0.28745 -4.16222,-0.18979 -8.30394,-1.35894 -12.25176,-2.90841 2.56172,-9.69476 1.49858,-20.44366 -3.48083,-29.20745 -1.79648,-3.01982 -4.01902,-5.76864 -6.35257,-8.38575 -1.03052,-1.03714 -2.16029,-1.96789 -3.25242,-2.93821 -1.297612,3.2136 -2.18462,6.60056 -2.622753,10.03719 -0.03696,0.75389 -0.238865,1.61521 0.378688,2.19397 2.061005,2.85925 3.679455,6.02466 4.917545,9.31852 0.4266,1.96801 1.07423,3.91291 1.33673,5.88736 0.28666,6.54454 -0.91673,13.28517 -4.3044,18.96129 -4.254588,7.30694 -11.68927,12.55841 -19.898564,14.45144 -7.023073,1.67225 -14.570853,0.95954 -21.033692,-2.32726 -6.430402,-3.23491 -11.356645,-9.03934 -14.050144,-15.66367 -0.826974,-1.99517 -1.582321,-3.96648 -1.84785,-6.12291 -0.718741,-4.12945 -0.796497,-8.39721 0.0767,-12.46467 1.411158,-6.99391 5.501873,-13.3685 11.213124,-17.63239 2.152451,-1.60702 4.448802,-3.0709 6.934591,-4.10177 2.228092,-0.67668 4.490097,-1.23339 6.722386,-1.89817 1.883586,-0.48189 3.969655,-0.39532 5.959111,-0.43358 4.39599,0.0431 8.755313,0.8607 12.683304,2.89092 -2.597254,9.7299 -1.527922,20.53405 3.48682,29.32704 1.786,2.9835 3.945422,5.7376 6.273329,8.31348 1.123452,1.09483 2.371329,2.04728 3.563705,3.06416 1.24525,-3.48393 2.1871,-7.08998 2.53505,-10.77968 0.20129,-0.67224 -0.16341,-1.28892 -0.63579,-1.73252 -2.11208,-2.79073 -3.625904,-5.99436 -4.863406,-9.25048 -0.421013,-1.96652 -1.056606,-3.90041 -1.307579,-5.89534 -0.184282,-5.28048 0.497751,-10.66408 2.647422,-15.52787 2.327603,-5.46093 6.403143,-10.24248 11.438483,-13.45165 3.54213,-2.29559 7.76653,-3.9596 12.05202,-4.6956 1.75321,-0.29919 3.55566,-0.46311 5.38134,-0.47034 z" /></g></svg>
