<?xml version="1.0" encoding="UTF-8" standalone="no"?>
<!-- Created with Inkscape (http://www.inkscape.org/) -->

<svg
   width="143.13844mm"
   height="128.00156mm"
   viewBox="0 0 143.13844 128.00156"
   version="1.1"
   id="svg1"
   xml:space="preserve"
   inkscape:version="1.4 (86a8ad7, 2024-10-11)"
   sodipodi:docname="Ringe.svg"
   xmlns:inkscape="http://www.inkscape.org/namespaces/inkscape"
   xmlns:sodipodi="http://sodipodi.sourceforge.net/DTD/sodipodi-0.dtd"
   xmlns="http://www.w3.org/2000/svg"
   xmlns:svg="http://www.w3.org/2000/svg"><sodipodi:namedview
     id="namedview1"
     pagecolor="#ffffff"
     bordercolor="#000000"
     borderopacity="0.25"
     inkscape:showpageshadow="2"
     inkscape:pageopacity="0.0"
     inkscape:pagecheckerboard="0"
     inkscape:deskcolor="#d1d1d1"
     inkscape:document-units="mm"
     inkscape:zoom="0.32000352"
     inkscape:cx="326.55891"
     inkscape:cy="124.99862"
     inkscape:window-width="1280"
     inkscape:window-height="730"
     inkscape:window-x="-6"
     inkscape:window-y="-6"
     inkscape:window-maximized="1"
     inkscape:current-layer="layer1" /><defs
     id="defs1" /><g
     inkscape:label="Ebene 1"
     inkscape:groupmode="layer"
     id="layer1"
     transform="translate(-29.46609,-79.919782)"><path
       style="fill:#000000;stroke-width:0.724227"
       d="m 69.89725,197.66679 c -11.086477,-0.89373 -22.482336,-7.05216 -29.152833,-15.7545 -19.6139,-25.5883 -4.854374,-61.73823 27.251079,-66.74504 l 2.093367,-0.32645 3.640747,-9.8e-4 3.640758,-9.8e-4 2.299419,0.41756 c 8.951513,1.62561 16.611693,5.3294 22.178123,10.72342 l 1.10011,1.06604 -2.26177,2.30709 c -1.243967,1.2689 -2.588315,2.71446 -2.987445,3.21237 l -0.725692,0.90527 -1.319706,-1.18156 c -4.369333,-3.91196 -9.633755,-6.52634 -15.792006,-7.8425 l -2.107806,-0.45049 -4.31141,-3.6e-4 -4.311412,-3.7e-4 -2.107793,0.44985 c -14.729701,3.14364 -24.662602,14.41516 -25.976265,29.47696 l -0.220265,2.52544 0.210566,2.51563 c 3.123481,37.3163 55.052427,40.8949 64.621144,4.45326 l 0.59007,-2.24724 0.10032,-3.1617 0.10034,-3.1617 -0.41074,-2.82642 c -0.37756,-2.59809 -1.25688,-5.9655 -1.99006,-7.62116 l -0.29895,-0.67503 1.56524,-2.22963 c 0.86088,-1.22627 2.11669,-2.89813 2.79068,-3.71521 l 1.22547,-1.48561 0.28307,0.36627 c 1.31455,1.70101 3.94945,8.30288 4.64702,11.64331 5.47278,26.20753 -17.298924,51.54642 -44.363336,49.36465 z m 55.76091,-1.44776 c -6.32229,-0.97671 -13.96213,-4.52177 -19.68141,-9.13262 l -1.66932,-1.34578 2.70183,-2.84528 2.70182,-2.84527 0.43072,0.332 c 6.39763,4.93121 9.96198,6.71941 15.9954,8.02471 l 1.62877,0.35237 4.21559,9.8e-4 4.21562,9.9e-4 2.17706,-0.44101 c 14.86813,-3.01189 25.54959,-16.17636 25.52895,-31.46344 l -0.003,-2.77845 -0.38035,-2.20362 c -2.29618,-13.301 -12.13612,-23.43701 -25.70071,-26.47307 l -2.00479,-0.44871 -4.02396,0.008 -4.02399,0.008 -2.33959,0.52413 c -13.00846,2.91425 -22.8764,12.70598 -25.19812,25.00351 l -0.422997,2.24045 -0.0069,4.1198 c -0.0045,2.68384 0.07997,4.52052 0.242077,5.2695 0.40332,1.864 1.33199,5.08156 1.84219,6.38258 l 0.47408,1.20889 -0.69717,1.28214 c -1.15272,2.11998 -3.686613,5.78547 -3.998966,5.78484 -0.983785,-0.002 -4.125336,-7.77997 -5.185324,-12.83807 l -0.542098,-2.58686 0.0023,-4.69464 0.0023,-4.69465 0.337923,-2.1445 c 2.377979,-15.09047 11.918335,-25.83737 28.177235,-31.74072 l 0.35203,-0.12782 -0.92689,-0.74575 c -0.50979,-0.41016 -3.53529,-3.36656 -6.72335,-6.56978 l -5.79643,-5.82405 v -1.57154 -1.57165 l 2.73056,-2.650806 c 1.50179,-1.45794 3.16169,-3.029269 3.68864,-3.491832 0.52695,-0.462562 1.78675,-1.641855 2.79953,-2.620649 l 1.84143,-1.779624 h 15.32924 15.32922 l 2.76751,2.63475 c 1.52213,1.449114 3.94869,3.816472 5.39238,5.260797 l 2.6249,2.626044 v 1.54437 1.54437 l -1.19317,1.09909 c -0.65623,0.60449 -3.85454,3.73553 -7.10736,6.95784 l -5.9142,5.85878 2.55642,1.09781 c 36.95843,15.87105 29.57579,70.53263 -10.32864,76.47396 l -1.96283,0.29224 -4.26476,-0.0185 c -2.59076,-0.0114 -4.94169,-0.12314 -5.98934,-0.28499 z m 8.87313,-77.06232 c 0.43611,-0.92218 1.25805,-2.84074 1.82655,-4.26352 0.56849,-1.42276 1.60564,-3.98335 2.30475,-5.69021 0.69913,-1.70685 1.27113,-3.15117 1.27113,-3.2096 0,-0.0585 -2.84553,-0.10628 -6.3234,-0.10628 -3.47787,0 -6.32341,0.045 -6.32341,0.0999 0,0.055 1.12097,2.73603 2.49103,5.95797 1.37008,3.22193 2.49105,5.89916 2.49105,5.94939 0,0.26663 1.20699,2.93897 1.32744,2.93897 0.0782,0 0.49877,-0.75451 0.93486,-1.67667 z m -7.30827,-1.8415 c -0.27197,-0.67936 -1.26399,-2.90345 -2.20448,-4.94241 -0.9405,-2.03896 -2.00637,-4.35391 -2.36859,-5.14433 l -0.65862,-1.43713 -3.53913,0.0558 -3.5391,0.0558 3.24328,3.39333 c 3.8903,4.07028 9.35702,9.45832 9.47586,9.33948 0.0469,-0.0469 -0.13725,-0.64113 -0.40922,-1.32051 z m 24.92469,-11.3977 c 0.0254,-0.0694 -1.56989,-0.14115 -3.54518,-0.15945 l -3.5914,-0.0333 -0.84876,2.04525 c -0.46683,1.12489 -1.12701,2.60931 -1.46709,3.2987 -0.57918,1.17414 -3.1448,7.39067 -3.1448,7.61992 0,0.12027 12.52712,-12.57982 12.59723,-12.77117 z m -14.32179,-4.60724 c 0,-0.0934 -0.71419,-0.97713 -1.58707,-1.964076 -0.8729,-0.986942 -1.87177,-2.160922 -2.21972,-2.608822 -0.34795,-0.447913 -0.70464,-0.814382 -0.79268,-0.814382 -0.13608,0 -3.9988,4.99871 -4.18303,5.41322 -0.0351,0.0791 1.92655,0.14371 4.35931,0.14371 2.43905,0 4.42319,-0.0761 4.42319,-0.16965 z m -18.53975,-1.942397 c -0.48622,-1.056236 -0.94332,-1.89696 -1.01579,-1.868279 -0.0725,0.02871 -1.01362,0.89288 -2.09146,1.920424 l -1.95967,1.868282 h 2.97546 2.97547 z m 33.86921,1.763597 c 0,-0.14483 -2.61401,-2.614331 -4.01629,-3.794272 l -0.60465,-0.508783 -0.10536,0.402847 c -0.058,0.221564 -0.47565,1.225037 -0.92822,2.229942 l -0.82287,1.827096 h 3.23869 c 1.78126,0 3.23868,-0.0706 3.23868,-0.15683 z m -9.80783,-2.573729 c 0.41812,-1.080249 0.8185,-2.158101 0.88973,-2.395228 l 0.12949,-0.431142 H 141.767 c -1.42986,0 -2.59975,0.03531 -2.59975,0.07849 0,0.04317 0.55928,0.828679 1.24287,1.745572 0.68358,0.916893 1.42355,1.959424 1.64438,2.316738 0.51952,0.840579 0.41961,0.942139 1.29305,-1.31443 z m -17.29644,-0.47904 c 0.8188,-1.027555 1.5717,-1.976069 1.67314,-2.107807 l 0.18444,-0.239523 h -2.70082 -2.70083 l 0.64603,1.293427 c 0.35531,0.711381 0.7546,1.659896 0.88732,2.107794 0.3205,1.081678 0.30083,1.091998 2.01072,-1.053891 z"
       id="path1" /></g></svg>
