<?xml version="1.0" encoding="UTF-8" standalone="no"?>
<!-- Created with Inkscape (http://www.inkscape.org/) -->

<svg
   width="145mm"
   height="145mm"
   viewBox="0 0 145 145"
   version="1.1"
   id="svg1"
   xml:space="preserve"
   inkscape:version="1.4 (86a8ad7, 2024-10-11)"
   sodipodi:docname="Stern.svg"
   xmlns:inkscape="http://www.inkscape.org/namespaces/inkscape"
   xmlns:sodipodi="http://sodipodi.sourceforge.net/DTD/sodipodi-0.dtd"
   xmlns="http://www.w3.org/2000/svg"
   xmlns:svg="http://www.w3.org/2000/svg"><sodipodi:namedview
     id="namedview1"
     pagecolor="#ffffff"
     bordercolor="#000000"
     borderopacity="0.25"
     inkscape:showpageshadow="2"
     inkscape:pageopacity="0.0"
     inkscape:pagecheckerboard="0"
     inkscape:deskcolor="#d1d1d1"
     inkscape:document-units="mm"
     inkscape:zoom="0.45255332"
     inkscape:cx="67.395374"
     inkscape:cy="205.50065"
     inkscape:window-width="1280"
     inkscape:window-height="730"
     inkscape:window-x="-6"
     inkscape:window-y="-6"
     inkscape:window-maximized="1"
     inkscape:current-layer="layer1" /><defs
     id="defs1" /><g
     inkscape:label="Ebene 1"
     inkscape:groupmode="layer"
     id="layer1"
     transform="translate(-28.781134,-71.893806)"
     style="display:inline"><path
       style="display:inline;fill:#3e2311;fill-opacity:1;stroke-width:0.70736"
       d="m 61.939472,206.6267 c -0.548989,-0.25209 -1.190395,-0.67484 -1.425343,-0.93944 -0.630351,-0.70987 -1.194836,-2.20139 -1.194836,-3.15708 0,-0.46131 1.116174,-4.14252 2.480388,-8.18047 1.364215,-4.03795 2.945281,-8.91384 3.513484,-10.83531 0.568201,-1.92146 2.025327,-6.63778 3.238058,-10.48071 2.212173,-7.01 3.258242,-10.55301 3.706029,-12.55223 l 0.240409,-1.07336 -1.910292,-1.63741 c -3.381394,-2.89836 -12.386504,-10.03667 -22.437472,-17.7861 -5.388307,-4.15445 -10.020457,-7.83773 -10.293668,-8.18506 -1.363624,-1.73357 -1.167405,-3.89242 0.489866,-5.38967 0.539903,-0.48777 1.409106,-0.99551 1.931563,-1.12831 0.536331,-0.13633 8.446683,-0.30618 18.168242,-0.39011 9.470076,-0.0817 19.092541,-0.2178 21.383256,-0.30231 l 4.164936,-0.15364 1.045706,-2.90086 c 0.575138,-1.59546 2.647253,-7.61718 4.604699,-13.38157 4.931083,-14.521311 7.573947,-22.230198 8.143568,-23.753703 0.882567,-2.36051 3.202855,-3.699448 5.315795,-3.06752 1.32644,0.396707 2.29796,1.108478 2.77675,2.034353 0.40824,0.789457 5.00025,14.137936 7.60613,22.11023 0.84009,2.57013 2.66629,7.89199 4.05823,11.82634 l 2.53079,7.15337 2.74831,0.14056 c 1.51158,0.0773 11.22648,0.2083 21.58866,0.29111 17.36439,0.13875 18.92034,0.18556 19.86149,0.59754 1.57891,0.69112 2.45864,2.19339 2.38665,4.0755 -0.0436,1.13868 -0.4998,2.07022 -1.45159,2.96378 -0.72983,0.68519 -9.03096,7.15348 -17.08032,13.30911 -6.10432,4.66818 -15.43753,12.12713 -16.10958,12.87451 l -0.54016,0.6007 0.81329,2.74495 c 0.44729,1.50972 1.77847,5.94531 2.95816,9.85687 1.1797,3.91155 3.05904,10.19998 4.17634,13.97428 1.11728,3.77431 2.65196,8.93599 3.41037,11.4704 1.57309,5.25676 1.63861,6.33601 0.47715,7.85877 -0.90577,1.18753 -1.88316,1.64796 -3.5403,1.66776 -1.61333,0.0193 -1.75678,-0.062 -7.14223,-4.04608 -10.80347,-7.99223 -17.23395,-12.66953 -20.90913,-15.20857 -2.26458,-1.5645 -5.35264,-3.70886 -6.86237,-4.76524 -2.29783,-1.60783 -2.8144,-1.87371 -3.17136,-1.63234 -0.23453,0.15858 -2.873425,1.93619 -5.864212,3.95024 -2.990788,2.01404 -7.739811,5.31989 -10.553384,7.34635 -10.924268,7.86811 -14.192371,10.22947 -16.719239,12.08046 -3.543399,2.59562 -4.633795,2.92869 -6.612833,2.01991 z"
       id="path4" /></g></svg>
