<?xml version="1.0" encoding="UTF-8" standalone="no"?>
<!-- Created with Inkscape (http://www.inkscape.org/) -->

<svg
   width="143.13844mm"
   height="128.00156mm"
   viewBox="0 0 143.13844 128.00156"
   version="1.1"
   id="svg1"
   xml:space="preserve"
   inkscape:version="1.4 (86a8ad7, 2024-10-11)"
   sodipodi:docname="Vulkan.svg"
   xmlns:inkscape="http://www.inkscape.org/namespaces/inkscape"
   xmlns:sodipodi="http://sodipodi.sourceforge.net/DTD/sodipodi-0.dtd"
   xmlns="http://www.w3.org/2000/svg"
   xmlns:svg="http://www.w3.org/2000/svg"><sodipodi:namedview
     id="namedview1"
     pagecolor="#ffffff"
     bordercolor="#000000"
     borderopacity="0.25"
     inkscape:showpageshadow="2"
     inkscape:pageopacity="0.0"
     inkscape:pagecheckerboard="0"
     inkscape:deskcolor="#d1d1d1"
     inkscape:document-units="mm"
     inkscape:zoom="0.64000704"
     inkscape:cx="246.09104"
     inkscape:cy="160.93573"
     inkscape:window-width="1280"
     inkscape:window-height="730"
     inkscape:window-x="-6"
     inkscape:window-y="-6"
     inkscape:window-maximized="1"
     inkscape:current-layer="layer1" /><defs
     id="defs1" /><g
     inkscape:label="Ebene 1"
     inkscape:groupmode="layer"
     id="layer1"
     transform="translate(-29.46609,-79.919782)"><path
       style="fill:#000000;stroke-width:0.699299"
       d="m 38.117542,207.12423 c -2.463534,-1.09492 -2.602867,-3.69591 -0.29047,-5.42237 0.456463,-0.34079 1.168608,-0.52912 2.264763,-0.59892 l 1.598932,-0.10178 2.900632,-3.00108 c 8.657422,-8.95728 19.66946,-22.90972 23.702807,-30.03185 1.172872,-2.07107 1.228277,-2.09701 3.350299,-1.56858 1.539902,0.38346 2.019767,0.40747 3.25846,0.16303 3.956437,-0.78073 9.451034,-4.92939 12.264571,-9.26028 l 0.780064,-1.20074 0.317558,1.0774 c 0.286774,0.97297 1.511321,6.88999 1.889294,9.12909 0.418241,2.47764 3.678515,3.37864 5.592028,1.54538 0.833646,-0.79869 0.970988,-1.13959 2.077451,-5.15651 0.485866,-1.7639 0.945223,-3.41592 1.020818,-3.67117 0.184534,-0.62323 1.179501,1.69091 4.389231,10.20862 4.49984,11.94137 5.6099,14.64072 6.30759,15.33841 0.84347,0.84347 2.19878,1.11065 3.37095,0.66451 1.71718,-0.65356 1.79631,-0.91648 2.67753,-8.89577 0.79421,-7.19144 1.36359,-12.78132 1.43378,-14.07615 0.0202,-0.37304 0.0754,-0.67832 0.12254,-0.67842 0.0471,-9e-5 1.76789,1.62176 3.82381,3.60416 7.34322,7.08054 10.42356,8.77187 13.8544,7.60707 0.62105,-0.21086 1.33676,-0.31748 1.59046,-0.23697 0.25372,0.0806 1.16181,1.1134 2.01799,2.29527 5.48379,7.56979 11.83351,15.1881 18.80588,22.56305 l 3.44016,3.63877 h 1.20509 c 2.34669,0 4.14295,1.53758 4.14489,3.54799 6.9e-4,0.77138 -0.1633,1.11253 -0.84332,1.75387 -0.46433,0.43792 -1.1998,0.86733 -1.63437,0.95424 -0.43458,0.0869 -28.66844,0.15368 -62.74193,0.14837 -51.076738,-0.007 -62.081713,-0.0674 -62.691888,-0.3386 z M 110.91452,177.7455 c -0.867,-1.9486 -3.84169,-9.49683 -6.31935,-16.03532 -3.42214,-9.03094 -3.48201,-9.15839 -4.53867,-9.66229 -1.225415,-0.58434 -2.52507,-0.24162 -3.266307,0.86135 -0.570318,0.84865 -0.650838,1.09686 -2.199998,6.78184 l -0.928746,3.40822 -0.793188,-3.40822 c -1.222223,-5.25174 -2.356022,-9.18605 -2.808176,-9.74444 -0.273076,-0.33723 -0.72762,-0.51734 -1.360092,-0.5389 -0.948548,-0.0324 -0.952155,-0.0288 -2.453328,2.45392 -0.826861,1.36747 -1.920325,3.04844 -2.42992,3.73544 -1.455465,1.9622 -5.108034,5.29172 -6.78573,6.18557 -2.550038,1.35861 -5.015421,1.26284 -5.18798,-0.20155 -0.0396,-0.33606 0.608628,-2.33175 1.44051,-4.43483 1.793828,-4.53501 4.791837,-12.49726 6.283534,-16.68812 1.34006,-3.76484 1.650259,-4.35954 2.468415,-4.73231 0.498941,-0.22735 5.155132,-0.30362 19.114126,-0.31317 20.20256,-0.0138 19.52595,-0.0616 20.20301,1.42426 0.17467,0.38331 1.12936,2.9172 2.12152,5.63087 3.91626,10.71132 6.61047,17.38237 9.24481,22.89072 0.70009,1.46386 1.23674,2.84924 1.19257,3.07862 -0.13358,0.69359 -1.30077,0.95317 -2.2318,0.49636 -1.68447,-0.82649 -5.18273,-3.9031 -10.21683,-8.98537 -4.61219,-4.65631 -5.30986,-5.26883 -6.00139,-5.26883 -0.53592,0 -1.0097,0.22722 -1.50359,0.72111 -0.66654,0.66654 -0.7209,0.85792 -0.71821,2.52865 0.003,1.75212 -0.14891,3.49349 -1.32905,15.25251 l -0.55708,5.5507 z M 92.851706,131.24617 c -0.580706,-0.23444 -0.775042,-0.90664 -1.479807,-5.11859 l -0.422529,-2.52521 -1.608862,-0.75287 c -1.998492,-0.93522 -3.481144,-2.13508 -4.906801,-3.97091 -0.997035,-1.2839 -1.158305,-1.3961 -1.706962,-1.18749 -0.883527,0.33591 -3.657483,0.27408 -5.532199,-0.1233 -2.675077,-0.56704 -4.792144,-1.74747 -6.885495,-3.83918 -3.042471,-3.0401 -4.380128,-6.25963 -4.111307,-9.89528 0.403281,-5.454177 3.622702,-9.677713 8.930764,-11.716213 2.28808,-0.878712 6.224306,-1.106569 8.365073,-0.484231 0.784346,0.228016 1.45194,0.38025 1.483542,0.338299 0.03161,-0.04195 0.533016,-1.075397 1.11425,-2.296547 0.900894,-1.892745 1.388899,-2.548005 3.308108,-4.441919 1.617877,-1.596552 2.706383,-2.440995 3.868664,-3.001234 2.936255,-1.415326 4.210312,-1.685817 7.880495,-1.67308 3.73238,0.01296 4.64908,0.206907 7.52427,1.591977 3.25295,1.567057 5.76012,4.146275 7.61946,7.838409 1.10563,2.195474 1.49162,2.433164 3.05144,1.879049 1.51944,-0.539766 5.24616,-0.726019 7.04689,-0.352188 6.40763,1.330216 11.02134,7.913195 10.05713,14.349788 -0.58644,3.91478 -3.40923,7.95817 -6.80824,9.75217 -2.30051,1.21421 -4.00812,1.61444 -6.54538,1.53412 l -2.21218,-0.07 -0.45997,0.90219 c -1.26727,2.48567 -4.14357,4.89275 -6.83442,5.71952 -0.80355,0.24688 -1.54891,0.5281 -1.65641,0.62494 -0.10749,0.0968 -0.46793,1.55348 -0.80097,3.23702 -0.46274,2.33914 -0.72852,3.16277 -1.12705,3.49269 -0.47408,0.39244 -1.25412,0.4303 -8.57352,0.41609 -4.428612,-0.008 -8.2887,-0.1112 -8.577984,-0.228 z"
       id="path5" /></g></svg>
