<?xml version="1.0" encoding="UTF-8" standalone="no"?>
<!-- Created with Inkscape (http://www.inkscape.org/) -->

<svg
   width="145mm"
   height="145mm"
   viewBox="0 0 145 145"
   version="1.1"
   id="svg1"
   xml:space="preserve"
   inkscape:version="1.4 (86a8ad7, 2024-10-11)"
   sodipodi:docname="Vulkan.svg"
   xmlns:inkscape="http://www.inkscape.org/namespaces/inkscape"
   xmlns:sodipodi="http://sodipodi.sourceforge.net/DTD/sodipodi-0.dtd"
   xmlns="http://www.w3.org/2000/svg"
   xmlns:svg="http://www.w3.org/2000/svg"><sodipodi:namedview
     id="namedview1"
     pagecolor="#ffffff"
     bordercolor="#000000"
     borderopacity="0.25"
     inkscape:showpageshadow="2"
     inkscape:pageopacity="0.0"
     inkscape:pagecheckerboard="0"
     inkscape:deskcolor="#d1d1d1"
     inkscape:document-units="mm"
     inkscape:zoom="0.45255332"
     inkscape:cx="67.395374"
     inkscape:cy="205.50065"
     inkscape:window-width="1280"
     inkscape:window-height="730"
     inkscape:window-x="-6"
     inkscape:window-y="-6"
     inkscape:window-maximized="1"
     inkscape:current-layer="layer1" /><defs
     id="defs1" /><g
     inkscape:label="Ebene 1"
     inkscape:groupmode="layer"
     id="layer1"
     transform="translate(-28.781134,-71.893806)"
     style="display:inline"><path
       style="display:inline;fill:#3e2311;fill-opacity:1;stroke-width:0.700908"
       d="m 38.601877,208.45102 c -2.463534,-1.09997 -2.602867,-3.71294 -0.29047,-5.44735 0.456463,-0.34236 1.168608,-0.53156 2.264763,-0.60168 l 1.598932,-0.10225 2.900632,-3.01491 c 8.657422,-8.99854 19.66946,-23.01526 23.702807,-30.1702 1.172872,-2.08061 1.228277,-2.10667 3.350299,-1.57581 1.539902,0.38523 2.019767,0.40935 3.25846,0.16378 3.956437,-0.78432 9.451034,-4.9521 12.264571,-9.30294 l 0.780064,-1.20627 0.317558,1.08236 c 0.286774,0.97746 1.511321,6.92174 1.889294,9.17115 0.418241,2.48906 3.678515,3.39421 5.592028,1.5525 0.833646,-0.80237 0.970988,-1.14484 2.077451,-5.18027 0.485866,-1.77202 0.945223,-3.43165 1.020818,-3.68808 0.184534,-0.6261 1.179506,1.6987 4.389226,10.25565 4.49984,11.99639 5.6099,14.70817 6.30759,15.40908 0.84347,0.84735 2.19878,1.11576 3.37095,0.66757 1.71718,-0.65657 1.79631,-0.92071 2.67753,-8.93676 0.79421,-7.22457 1.36359,-12.8402 1.43378,-14.14099 0.0202,-0.37476 0.0754,-0.68145 0.12254,-0.68155 0.0471,-9e-5 1.76789,1.62923 3.82381,3.62077 7.34322,7.11315 10.42356,8.81228 13.8544,7.64211 0.62105,-0.21183 1.33676,-0.31894 1.59046,-0.23806 0.25372,0.081 1.16181,1.11853 2.01799,2.30584 5.48379,7.60467 11.83351,15.25807 18.80588,22.667 l 3.44016,3.65553 h 1.20509 c 2.34669,0 4.14295,1.54467 4.14489,3.56434 6.9e-4,0.77493 -0.1633,1.11765 -0.84332,1.76195 -0.46433,0.43994 -1.1998,0.87132 -1.63437,0.95864 -0.43458,0.0873 -28.66844,0.15438 -62.74193,0.14905 -51.076733,-0.007 -62.081708,-0.0677 -62.691883,-0.34016 z m 72.796973,-29.51408 c -0.867,-1.95757 -3.84169,-9.54058 -6.31935,-16.10919 -3.42214,-9.07255 -3.48201,-9.20058 -4.53866,-9.70681 -1.22542,-0.58703 -2.525075,-0.24273 -3.266312,0.86532 -0.570318,0.85256 -0.650838,1.10192 -2.199998,6.81309 l -0.928746,3.42392 -0.793188,-3.42392 c -1.222223,-5.27594 -2.356022,-9.22837 -2.808176,-9.78934 -0.273076,-0.33878 -0.72762,-0.51972 -1.360092,-0.54138 -0.948548,-0.0325 -0.952155,-0.0289 -2.453328,2.46523 -0.826861,1.37377 -1.920325,3.06248 -2.42992,3.75265 -1.455465,1.97124 -5.108034,5.31609 -6.78573,6.21406 -2.550038,1.36487 -5.015421,1.26866 -5.18798,-0.20248 -0.0396,-0.3376 0.608628,-2.34249 1.44051,-4.45526 1.793828,-4.5559 4.791837,-12.55483 6.283534,-16.765 1.34006,-3.78218 1.650259,-4.37962 2.468415,-4.75411 0.498941,-0.2284 5.155132,-0.30502 19.114121,-0.31461 20.20256,-0.0139 19.52595,-0.0619 20.20301,1.43082 0.17467,0.38507 1.12936,2.93064 2.12152,5.65681 3.91626,10.76067 6.61047,17.46245 9.24481,22.99618 0.70009,1.4706 1.23674,2.86236 1.19257,3.0928 -0.13358,0.69678 -1.30077,0.95756 -2.2318,0.49865 -1.68447,-0.8303 -5.18273,-3.92109 -10.21683,-9.02677 -4.61219,-4.67776 -5.30986,-5.2931 -6.00139,-5.2931 -0.53592,0 -1.0097,0.22826 -1.50359,0.72443 -0.66654,0.66961 -0.7209,0.86187 -0.71821,2.5403 0.003,1.76019 -0.14891,3.50958 -1.32905,15.32278 l -0.55708,5.57627 z M 93.336041,132.22339 c -0.580706,-0.23552 -0.775042,-0.91081 -1.479807,-5.14217 l -0.422529,-2.53684 -1.608862,-0.75634 c -1.998492,-0.93953 -3.481144,-2.14492 -4.906801,-3.9892 -0.997035,-1.28982 -1.158305,-1.40254 -1.706962,-1.19297 -0.883527,0.33746 -3.657483,0.27535 -5.532199,-0.12386 -2.675077,-0.56966 -4.792144,-1.75552 -6.885495,-3.85687 -3.042471,-3.05411 -4.380128,-6.28847 -4.111307,-9.94087 0.403281,-5.479297 3.622702,-9.722291 8.930764,-11.770182 2.28808,-0.882761 6.224306,-1.111667 8.365073,-0.486462 0.784346,0.229066 1.45194,0.382002 1.483542,0.339857 0.03161,-0.04214 0.533016,-1.080351 1.11425,-2.307127 0.900894,-1.901464 1.388899,-2.559743 3.308108,-4.462382 1.617877,-1.603908 2.706383,-2.452241 3.868664,-3.015061 2.936255,-1.421846 4.210312,-1.693583 7.88049,-1.680788 3.73238,0.01302 4.64908,0.20786 7.52427,1.599311 3.25295,1.574277 5.76012,4.165377 7.61946,7.874521 1.10563,2.205588 1.49162,2.444373 3.05144,1.887705 1.51944,-0.542252 5.24616,-0.729363 7.04689,-0.35381 6.40763,1.336344 11.02134,7.949648 10.05713,14.415888 -0.58644,3.93282 -3.40923,7.99484 -6.80824,9.7971 -2.30051,1.21981 -4.00812,1.62188 -6.54538,1.54119 l -2.21218,-0.0703 -0.45997,0.90634 c -1.26727,2.49713 -4.14357,4.91529 -6.83442,5.74587 -0.80355,0.24802 -1.54891,0.53054 -1.65641,0.62782 -0.10749,0.0973 -0.46793,1.56064 -0.80097,3.25194 -0.46274,2.34991 -0.72852,3.17734 -1.12705,3.50878 -0.47408,0.39424 -1.25412,0.43228 -8.57352,0.418 -4.428607,-0.008 -8.288695,-0.11171 -8.577979,-0.22905 z"
       id="path5" /></g></svg>
