<?xml version="1.0" encoding="UTF-8" standalone="no"?>
<!-- Created with Inkscape (http://www.inkscape.org/) -->

<svg
   width="143.13844mm"
   height="128.00156mm"
   viewBox="0 0 143.13844 128.00156"
   version="1.1"
   id="svg1"
   xml:space="preserve"
   inkscape:version="1.4 (86a8ad7, 2024-10-11)"
   sodipodi:docname="Wasserfall.svg"
   xmlns:inkscape="http://www.inkscape.org/namespaces/inkscape"
   xmlns:sodipodi="http://sodipodi.sourceforge.net/DTD/sodipodi-0.dtd"
   xmlns="http://www.w3.org/2000/svg"
   xmlns:svg="http://www.w3.org/2000/svg"><sodipodi:namedview
     id="namedview1"
     pagecolor="#ffffff"
     bordercolor="#000000"
     borderopacity="0.25"
     inkscape:showpageshadow="2"
     inkscape:pageopacity="0.0"
     inkscape:pagecheckerboard="0"
     inkscape:deskcolor="#d1d1d1"
     inkscape:document-units="mm"
     inkscape:zoom="0.64000704"
     inkscape:cx="246.09104"
     inkscape:cy="160.93573"
     inkscape:window-width="1280"
     inkscape:window-height="730"
     inkscape:window-x="-6"
     inkscape:window-y="-6"
     inkscape:window-maximized="1"
     inkscape:current-layer="layer1" /><defs
     id="defs1" /><g
     inkscape:label="Ebene 1"
     inkscape:groupmode="layer"
     id="layer1"
     transform="translate(-29.46609,-79.919782)"><path
       style="fill:#000000;stroke-width:0.667436"
       d="m 92.076067,207.83748 c -9.679619,-0.46717 -18.760554,-1.68785 -28.618393,-3.84697 -2.911731,-0.63774 -9.876554,-2.69454 -11.958936,-3.53159 -6.845368,-2.75173 -9.587726,-5.03986 -9.900472,-8.26054 -0.408031,-4.20219 3.404048,-7.27003 12.843095,-10.33568 2.082926,-0.67649 4.479483,-1.45499 5.325672,-1.72994 l 1.53852,-0.49997 0.0088,-42.04312 0.0088,-42.043128 0.525692,-1.86115 c 1.698646,-6.013796 5.577263,-10.457117 10.555385,-12.092206 5.06363,-1.663183 13.36004,0.148537 12.3701,2.701311 -0.07319,0.18869 -0.785931,0.669212 -1.583908,1.067814 -5.406705,2.700791 -8.334468,9.91152 -6.953839,17.126499 0.206091,1.077 0.894756,3.20244 1.530359,4.72327 1.647578,3.94197 2.203433,6.72066 2.063902,10.31742 -0.135646,3.49653 -0.701133,5.75114 -2.455732,9.79105 -1.669049,3.84297 -2.211594,6.27572 -2.218215,9.94632 -0.0067,3.67796 0.591997,6.05585 2.688675,10.68009 2.041434,4.50246 2.508827,6.81338 2.074497,10.25717 -0.285273,2.26199 -0.898952,4.42061 -1.86369,6.5555 -1.938665,4.28999 -2.672896,7.02106 -2.833665,10.54005 -0.126875,2.77685 0.198639,4.80163 1.02668,6.38616 0.951107,1.82001 3.54947,3.72405 6.145752,4.50342 1.526384,0.45821 1.530547,0.45711 1.149435,-0.29881 -0.912383,-1.80985 -1.173708,-3.60633 -1.165801,-8.01435 0.0088,-4.84277 0.181509,-5.76424 2.028302,-10.8135 1.74914,-4.7823 1.907251,-5.47029 2.040094,-8.87641 0.17212,-4.41374 -0.286924,-6.37569 -2.630287,-11.24163 -1.551364,-3.22143 -2.141113,-5.76662 -2.140482,-9.23781 5.98e-4,-3.29749 0.4649,-5.60983 1.689578,-8.41441 2.904887,-6.65225 3.254031,-8.13129 3.087348,-13.0793 -0.130828,-3.88377 -0.598708,-5.91137 -2.081773,-9.02182 -1.594627,-3.34433 -1.905148,-4.52783 -2.041346,-7.779996 -0.137738,-3.288867 0.160592,-5.18421 1.239991,-7.878122 1.28168,-3.198737 4.445466,-6.905754 7.271789,-8.520375 2.548613,-1.455969 3.776988,-1.685124 9.636276,-1.797727 2.92911,-0.05633 7.26169,-0.0138 9.62794,0.09461 3.7012,0.16936 4.37081,0.258277 4.79308,0.63642 1.02454,0.917509 0.48231,2.246639 -1.24798,3.059138 -1.25571,0.589656 -3.59827,3.015216 -4.56624,4.728058 -1.45808,2.580045 -2.01068,4.683141 -2.15524,8.202518 -0.16846,4.101346 0.27125,6.398066 1.89674,9.907596 1.77854,3.83989 2.47357,7.13563 2.21281,10.49268 -0.21187,2.72732 -0.89013,5.19721 -2.40512,8.75806 -1.97454,4.64091 -2.49418,6.94849 -2.49535,11.08117 -6.8e-4,3.54079 0.56613,5.61944 2.84381,10.423 2.08795,4.4033 2.26774,5.09458 2.25388,8.66623 -0.01,2.67373 -0.0768,3.11193 -0.76444,5.04968 -0.41418,1.16702 -1.28619,3.24028 -1.93778,4.60726 -0.65159,1.36689 -1.35381,2.97819 -1.5605,3.58062 -1.48911,4.34031 -1.37924,10.14807 0.24382,12.88866 1.56806,2.64772 4.83554,4.32283 8.43215,4.32283 h 1.18321 l -0.68774,-0.9954 c -1.72025,-2.48988 -2.42053,-4.78526 -2.58161,-8.46199 -0.18416,-4.20313 0.45934,-7.25232 2.44174,-11.57025 1.27844,-2.78456 2.03066,-5.87636 2.14966,-8.83586 0.0999,-2.48357 0.042,-3.08325 -0.49749,-5.15292 -0.37191,-1.42669 -1.20999,-3.5781 -2.14419,-5.50425 -1.8474,-3.80884 -2.48625,-6.218 -2.4886,-9.38449 -0.002,-3.76517 0.61565,-6.20864 2.66352,-10.52362 2.08827,-4.40014 2.8793,-8.88367 2.3349,-13.23447 -0.30613,-2.44665 -1.00311,-4.72379 -2.40161,-7.84651 -1.66812,-3.72482 -2.26977,-7.918525 -1.63193,-11.375351 0.92017,-4.987166 4.69187,-9.983545 9.23661,-12.235757 3.10293,-1.537714 4.26529,-1.685797 13.18607,-1.679861 7.08787,0.0045 7.81934,0.04245 8.7266,0.450039 1.11339,0.500218 1.73174,1.443978 1.73174,2.643086 0,1.212692 -0.53363,1.750963 -2.04342,2.061109 -6.06394,1.245722 -9.06109,4.842313 -10.43701,12.524501 -0.39104,2.183304 -0.41952,5.153744 -0.41952,43.788024 v 41.44575 l 1.89358,0.2724 c 6.44183,0.92663 16.24569,3.69394 19.99257,5.64329 6.65696,3.46333 6.90874,8.70715 0.56968,11.86461 -6.21059,3.09344 -17.4185,5.28773 -31.33194,6.13416 -6.02434,0.36654 -26.21194,0.4263 -33.019118,0.0974 z"
       id="path2" /></g></svg>
