<?xml version="1.0" encoding="UTF-8" standalone="no"?>
<!-- Created with Inkscape (http://www.inkscape.org/) -->

<svg
   width="105.00536mm"
   height="105.00536mm"
   viewBox="0 0 105.00536 105.00536"
   version="1.1"
   id="svg1"
   xml:space="preserve"
   sodipodi:docname="ZeigerIcon.svg"
   inkscape:version="1.4 (86a8ad7, 2024-10-11)"
   xmlns:inkscape="http://www.inkscape.org/namespaces/inkscape"
   xmlns:sodipodi="http://sodipodi.sourceforge.net/DTD/sodipodi-0.dtd"
   xmlns="http://www.w3.org/2000/svg"
   xmlns:svg="http://www.w3.org/2000/svg"><sodipodi:namedview
     id="namedview1"
     pagecolor="#ffffff"
     bordercolor="#000000"
     borderopacity="0.25"
     inkscape:showpageshadow="2"
     inkscape:pageopacity="0.0"
     inkscape:pagecheckerboard="0"
     inkscape:deskcolor="#d1d1d1"
     inkscape:document-units="mm"
     inkscape:zoom="0.45255328"
     inkscape:cx="440.83207"
     inkscape:cy="198.87161"
     inkscape:window-width="1280"
     inkscape:window-height="730"
     inkscape:window-x="-6"
     inkscape:window-y="-6"
     inkscape:window-maximized="1"
     inkscape:current-layer="layer1" /><defs
     id="defs1" /><g
     inkscape:label="Ebene 1"
     inkscape:groupmode="layer"
     id="layer1"
     transform="translate(63.664665,-95.083595)"><path
       id="path1-2"
       style="fill:#000000"
       d="M 22.372461 113.07474 L 20.755505 113.25406 L 19.138033 113.4339 L 16.668933 116.08076 L 14.199316 118.72815 L 9.6130328 123.63586 L 5.0272662 128.54305 L -3.0337405 137.07586 L -11.094747 145.60919 L -13.540593 145.60919 L -15.985922 145.60919 L -17.252511 146.13836 L -18.518583 146.66753 L -19.038965 146.66753 L -19.559347 146.66753 L -29.948894 141.69212 L -40.337923 136.71723 L -41.609164 136.95597 L -42.880404 137.1942 L -43.885511 138.19931 L -44.891134 139.20493 L -44.891134 140.74076 L -44.891134 142.2771 L -44.336646 143.06826 L -43.782674 143.85943 L -33.45669 148.91287 L -23.130705 153.96579 L -22.903329 156.1424 L -22.675952 158.31901 L -22.078056 159.28433 L -21.480677 160.24913 L -20.397539 161.4258 L -19.314401 162.60247 L -18.256067 163.16058 L -17.197734 163.71868 L -16.139401 163.97655 L -15.081067 164.2339 L -13.998963 164.27007 L -12.916341 164.30624 L -11.160893 163.78483 L -9.4059614 163.26393 L -7.9099287 161.98339 L -6.413896 160.70285 L -5.6676883 159.24144 L -4.9214806 157.78003 L -4.7524987 155.42927 L -4.5840335 153.0785 L -4.9442182 152.04549 L -5.304403 151.01248 L 3.2346107 142.40164 L 11.774141 133.79079 L 18.719454 126.49925 L 25.664766 119.2077 L 25.664766 117.75043 L 25.664766 116.29367 L 25.129398 115.25859 L 24.594547 114.22351 L 23.483504 113.64939 L 22.372461 113.07474 z M -15.025773 152.31163 L -13.785022 152.31163 L -12.544788 152.31163 L -11.960844 152.95707 L -11.376901 153.60199 L -11.376901 154.87168 L -11.376901 156.14137 L -12.30656 156.87207 L -13.236219 157.60329 L -13.629476 157.57539 L -14.022734 157.548 L -14.551901 157.35318 L -15.081067 157.15836 L -15.698601 156.62092 L -16.316134 156.08297 L -16.316134 154.78124 L -16.316134 153.47951 L -15.670695 152.89557 L -15.025773 152.31163 z " /></g></svg>
