<?xml version="1.0" encoding="UTF-8" standalone="no"?>
<!-- Created with Inkscape (http://www.inkscape.org/) -->

<svg
   width="105.00536mm"
   height="105.00536mm"
   viewBox="0 0 105.00536 105.00536"
   version="1.1"
   id="svg1"
   xml:space="preserve"
   sodipodi:docname="ZiffernIcon.svg"
   inkscape:version="1.4 (86a8ad7, 2024-10-11)"
   xmlns:inkscape="http://www.inkscape.org/namespaces/inkscape"
   xmlns:sodipodi="http://sodipodi.sourceforge.net/DTD/sodipodi-0.dtd"
   xmlns="http://www.w3.org/2000/svg"
   xmlns:svg="http://www.w3.org/2000/svg"><sodipodi:namedview
     id="namedview1"
     pagecolor="#ffffff"
     bordercolor="#000000"
     borderopacity="0.25"
     inkscape:showpageshadow="2"
     inkscape:pageopacity="0.0"
     inkscape:pagecheckerboard="0"
     inkscape:deskcolor="#d1d1d1"
     inkscape:document-units="mm"
     inkscape:zoom="0.64000699"
     inkscape:cx="50.780696"
     inkscape:cy="81.249113"
     inkscape:window-width="1280"
     inkscape:window-height="730"
     inkscape:window-x="-6"
     inkscape:window-y="-6"
     inkscape:window-maximized="1"
     inkscape:current-layer="layer1" /><defs
     id="defs1"><rect
       x="188.27919"
       y="62.499318"
       width="44.530764"
       height="52.343179"
       id="rect3" /><rect
       x="196.09161"
       y="77.342906"
       width="15.624829"
       height="19.531037"
       id="rect2" /><rect
       x="190.62292"
       y="67.968008"
       width="32.0309"
       height="38.280832"
       id="rect1" /><rect
       x="188.27919"
       y="62.499317"
       width="44.530766"
       height="52.343178"
       id="rect3-4" /><rect
       x="188.27919"
       y="62.499317"
       width="44.530766"
       height="52.343178"
       id="rect3-4-5" /><rect
       x="188.27919"
       y="62.499317"
       width="44.530766"
       height="52.343178"
       id="rect3-4-5-5" /></defs><g
     inkscape:label="Ebene 1"
     inkscape:groupmode="layer"
     id="layer1"
     transform="translate(-52.089272,-95.083595)"><path
       id="path1-4"
       style="fill:#000000"
       d="m 109.44908,106.04158 -4.0566,0.0388 -4.05712,0.0388 -1.411282,0.1695 -1.410766,0.17001 -1.94045,0.38757 -1.94045,0.38706 -2.82205,0.87953 -2.82205,0.87954 -2.82205,1.4149 -2.82205,1.4149 -2.483053,1.71617 -2.482536,1.71618 -2.894397,2.91816 -2.894913,2.91817 -1.558562,2.08721 -1.558561,2.08722 -1.596285,3.02823 -1.596801,3.02824 -1.058334,3.175 -1.058333,3.175 -0.550354,3.175 -0.550871,3.175 v 3.52744 3.52795 l 0.54777,3.13055 0.547254,3.13005 0.904337,2.867 0.904338,2.86701 1.416451,2.82205 1.415934,2.82205 1.128613,1.76424 1.128097,1.76371 2.047937,2.41174 2.04742,2.41174 2.677356,2.2841 2.676839,2.28461 2.478402,1.48932 2.478402,1.48983 2.915584,1.3193 2.915584,1.31982 3.610633,0.84852 3.611149,0.84853 1.23455,0.14469 1.234548,0.1447 4.05712,0.0558 4.05712,0.0563 2.82205,-0.51677 2.82204,-0.51676 1.76424,-0.48989 1.76372,-0.4899 2.82204,-1.1343 2.82257,-1.13429 1.91565,-1.09606 1.91564,-1.09606 2.31769,-1.73012 2.31769,-1.73065 2.71301,-2.77812 2.71301,-2.77864 1.73633,-2.57246 1.73581,-2.57297 1.23714,-2.4691 1.23765,-2.46961 0.88883,-2.64584 0.88935,-2.64583 0.38706,-1.76372 0.38706,-1.76423 0.16123,-0.98909 0.16123,-0.9896 0.23409,-3.24373 0.23461,-3.24425 -0.42323,-3.51141 -0.42323,-3.51141 -0.86764,-2.99517 -0.86817,-2.99517 -1.10639,-2.65772 -1.10639,-2.65771 -2.38435,-3.56568 -2.38435,-3.56567 -2.92902,-2.97553 -2.92954,-2.97553 -2.99827,-1.98282 -2.99878,-1.98283 -2.18953,-1.09451 -2.18953,-1.09399 -2.57297,-0.86093 -2.57297,-0.86092 -3.35122,-0.58136 z m -5.99705,4.57027 3.65714,0.21187 3.65662,0.21136 3.22255,0.75447 3.22202,0.75448 3.02204,1.30845 3.02204,1.30844 2.62258,1.77457 2.62206,1.77509 2.76934,2.77554 2.76882,2.77554 1.90531,2.86339 1.90531,2.86339 1.07332,2.36833 1.07384,2.36782 0.95498,3.41374 0.95498,3.41375 -0.0196,6.35 -0.0196,6.35 -0.96428,3.175 -0.9648,3.175 -1.18752,2.52439 -1.18753,2.52439 -1.85983,2.76728 -1.85932,2.76727 -2.31872,2.31459 -2.31872,2.3151 -1.94045,1.44901 -1.94045,1.44901 -2.48202,1.40301 -2.48254,1.40302 -3.12074,1.10174 -3.12125,1.10174 -3.47834,0.52245 -3.47834,0.52245 -2.56005,-0.0315 -2.56006,-0.032 -2.822045,-0.49971 -2.82205,-0.50022 -2.402437,-0.71934 -2.402438,-0.71985 -3.24993,-1.66502 -3.249931,-1.66501 -2.285132,-1.7539 -2.285132,-1.75442 -1.800407,-1.76785 -1.800407,-1.76785 -1.830379,-2.41949 -1.830379,-2.41949 -1.219047,-2.42001 -1.218531,-2.42 -0.876432,-2.32751 -0.875915,-2.32751 -0.577226,-3.06337 -0.576709,-3.06338 0.173633,-5.4684 0.174149,-5.46789 0.962215,-2.99878 0.962216,-2.99827 1.134297,-2.46961 1.134815,-2.46962 1.498616,-2.19522 1.499134,-2.19521 2.47375,-2.64893 2.473234,-2.64842 2.352828,-1.76268 2.352312,-1.76217 3.175,-1.56476 3.175,-1.56425 2.469616,-0.72347 2.469617,-0.72399 3.527433,-0.57825 z m 19.40295,5.36453 -0.52297,0.0915 -0.52245,0.0915 -1.30793,2.11305 -1.30793,2.11305 -0.0212,0.54674 -0.0217,0.54673 0.43357,0.43357 0.43356,0.43408 0.49661,-0.0987 0.49713,-0.0987 1.45056,-2.73472 1.45107,-2.73523 -0.52916,-0.3514 z m -35.190102,0.0222 -0.661458,0.35346 -0.660942,0.35399 v 0.54312 0.54363 l 1.451075,2.44275 1.451591,2.44274 h 0.641304 0.641821 l 0.216525,-0.68161 0.216524,-0.68213 -1.133781,-2.05207 -1.133781,-2.05207 -0.514697,-0.60616 z m -12.431799,11.9078 -0.530717,0.33434 -0.530717,0.33435 -0.108004,0.54777 -0.108003,0.54829 2.400887,1.44797 2.400887,1.44798 0.7059,-0.0935 0.705383,-0.0935 v -0.83664 -0.83665 l -2.46755,-1.39991 z m 59.564841,0.0636 -2.53215,1.62006 -2.53162,1.62005 v 0.29146 0.29145 l 0.21394,0.55811 0.21445,0.5581 h 0.4961 0.49609 l 2.28048,-1.48879 2.27997,-1.48829 0.17311,-0.45216 0.17363,-0.45166 -0.20308,-0.52916 -0.20309,-0.52917 h -0.42892 z m -56.303541,33.16128 -2.249475,1.60507 -2.249992,1.60559 v 0.6289 0.6289 l 0.235644,0.23513 0.235128,0.23513 h 0.357601 0.357601 l 2.199865,-1.4335 2.200383,-1.43351 0.211873,-0.55139 0.211357,-0.55138 -0.402043,-0.48473 -0.402042,-0.48421 h -0.35295 z m 51.969951,0.35295 -0.37672,0.70384 -0.37672,0.70331 2.39314,1.57923 2.39262,1.57872 0.52916,-0.0806 0.52917,-0.0811 0.10749,-0.92552 0.10748,-0.92604 -2.28151,-1.2759 -2.28152,-1.27589 h -0.37103 z m -41.252259,9.87847 -0.684713,0.96945 -0.684713,0.96997 -0.963765,1.85311 -0.964282,1.8526 0.21239,0.55346 0.21239,0.55294 0.77928,-0.11318 0.779798,-0.11265 1.319299,-2.2934 1.319816,-2.29288 0.01912,-0.60513 0.01912,-0.60462 -0.682129,-0.36483 z m 31.285949,0.70228 -0.32091,0.19844 -0.32091,0.19844 v 0.70383 0.70435 l 1.43867,2.11822 1.43815,2.11821 0.76275,-0.10903 0.76274,-0.10904 0.11524,-0.60306 0.11472,-0.60255 -1.41748,-2.08721 -1.41697,-2.08721 -0.57774,-0.2217 z"
       sodipodi:nodetypes="cccccccccccccccccccccccccccccccccccccccccccccccccccccccccccccccccccccccccccccccccccccccccccccccccccccccccccccccccccccccccccccccccccccccccccccccccccccccccccccccccccccccccccccccccccccccccccccccccccccccccccccccccccccccccccccccccccccccccccccccccccccccccccccccccccccccccccccccccccccccccc" /><text
       xml:space="preserve"
       transform="matrix(0.40739755,0,0,0.54319525,21.187486,75.116748)"
       id="text2"
       style="font-size:32px;text-align:start;writing-mode:lr-tb;direction:ltr;white-space:pre;shape-inside:url(#rect3);fill:#000000;stroke-width:0"><tspan
         x="188.2793"
         y="91.69457"
         id="tspan6"><tspan
           style="font-family:'Arial Rounded MT Bold';-inkscape-font-specification:'Arial Rounded MT Bold, '"
           id="tspan1">12</tspan></tspan></text><text
       xml:space="preserve"
       transform="matrix(0.39571917,0,0,0.52762413,56.33011,105.55328)"
       id="text2-8"
       style="font-size:32px;text-align:start;writing-mode:lr-tb;direction:ltr;white-space:pre;shape-inside:url(#rect3-4);fill:#000000;stroke-width:0"><tspan
         x="188.2793"
         y="91.69457"
         id="tspan8"><tspan
           style="font-family:'Arial Rounded MT Bold';-inkscape-font-specification:'Arial Rounded MT Bold, '"
           id="tspan7">3</tspan></tspan></text><text
       xml:space="preserve"
       transform="matrix(0.38618998,0,0,0.51491855,29.113372,135.7931)"
       id="text2-8-1"
       style="font-size:32px;text-align:start;writing-mode:lr-tb;direction:ltr;white-space:pre;shape-inside:url(#rect3-4-5);fill:#000000;stroke-width:0"><tspan
         x="188.2793"
         y="91.69457"
         id="tspan10"><tspan
           style="font-family:'Arial Rounded MT Bold';-inkscape-font-specification:'Arial Rounded MT Bold, '"
           id="tspan9">6</tspan></tspan></text><text
       xml:space="preserve"
       transform="matrix(0.37698548,0,0,0.50264594,0.01122043,106.14043)"
       id="text2-8-1-7"
       style="font-size:32px;text-align:start;writing-mode:lr-tb;direction:ltr;white-space:pre;shape-inside:url(#rect3-4-5-5);fill:#000000;stroke-width:0"><tspan
         x="188.2793"
         y="91.69457"
         id="tspan12"><tspan
   style="font-family:'Arial Rounded MT Bold';-inkscape-font-specification:'Arial Rounded MT Bold, '"
   id="tspan11">9</tspan>
</tspan></text></g></svg>
