<?xml version="1.0" encoding="UTF-8" standalone="no"?>
<!-- Created with Inkscape (http://www.inkscape.org/) -->

<svg
   width="105.00536mm"
   height="105.00536mm"
   viewBox="0 0 105.00536 105.00536"
   version="1.1"
   id="svg1"
   xml:space="preserve"
   sodipodi:docname="ZiffernIcon.svg"
   inkscape:version="1.4 (86a8ad7, 2024-10-11)"
   xmlns:inkscape="http://www.inkscape.org/namespaces/inkscape"
   xmlns:sodipodi="http://sodipodi.sourceforge.net/DTD/sodipodi-0.dtd"
   xmlns="http://www.w3.org/2000/svg"
   xmlns:svg="http://www.w3.org/2000/svg"><sodipodi:namedview
     id="namedview1"
     pagecolor="#ffffff"
     bordercolor="#000000"
     borderopacity="0.25"
     inkscape:showpageshadow="2"
     inkscape:pageopacity="0.0"
     inkscape:pagecheckerboard="0"
     inkscape:deskcolor="#d1d1d1"
     inkscape:document-units="mm"
     inkscape:zoom="0.45255328"
     inkscape:cx="3.3145268"
     inkscape:cy="198.87161"
     inkscape:window-width="1280"
     inkscape:window-height="730"
     inkscape:window-x="-6"
     inkscape:window-y="-6"
     inkscape:window-maximized="1"
     inkscape:current-layer="layer1" /><defs
     id="defs1" /><g
     inkscape:label="Ebene 1"
     inkscape:groupmode="layer"
     id="layer1"
     transform="translate(-52.089272,-95.083595)"><path
       id="path1-4"
       style="fill:#000000"
       d="M 109.44908 106.04158 L 105.39248 106.08034 L 101.33536 106.1191 L 99.924078 106.2886 L 98.513312 106.45861 L 96.572862 106.84618 L 94.632412 107.23324 L 91.810362 108.11277 L 88.988312 108.99231 L 86.166262 110.40721 L 83.344212 111.82211 L 80.861159 113.53828 L 78.378623 115.25446 L 75.484226 118.17262 L 72.589313 121.09079 L 71.030751 123.178 L 69.47219 125.26522 L 67.875905 128.29345 L 66.279104 131.32169 L 65.22077 134.49669 L 64.162437 137.67169 L 63.612083 140.84669 L 63.061212 144.02169 L 63.061212 147.54913 L 63.061212 151.07708 L 63.608982 154.20763 L 64.156236 157.33768 L 65.060573 160.20468 L 65.964911 163.07169 L 67.381362 165.89374 L 68.797296 168.71579 L 69.925909 170.48003 L 71.054006 172.24374 L 73.101943 174.65548 L 75.149363 177.06722 L 77.826719 179.35132 L 80.503558 181.63593 L 82.98196 183.12525 L 85.460362 184.61508 L 88.375946 185.93438 L 91.29153 187.2542 L 94.902163 188.10272 L 98.513312 188.95125 L 99.747862 189.09594 L 100.98241 189.24064 L 105.03953 189.29645 L 109.09665 189.35278 L 111.9187 188.83601 L 114.74074 188.31925 L 116.50498 187.82936 L 118.2687 187.33946 L 121.09074 186.20516 L 123.91331 185.07087 L 125.82896 183.97481 L 127.7446 182.87875 L 130.06229 181.14863 L 132.37998 179.41798 L 135.09299 176.63986 L 137.806 173.86122 L 139.54233 171.28876 L 141.27814 168.71579 L 142.51528 166.24669 L 143.75293 163.77708 L 144.64176 161.13124 L 145.53111 158.48541 L 145.91817 156.72169 L 146.30523 154.95746 L 146.46646 153.96837 L 146.62769 152.97877 L 146.86178 149.73504 L 147.09639 146.49079 L 146.67316 142.97938 L 146.24993 139.46797 L 145.38229 136.4728 L 144.51412 133.47763 L 143.40773 130.81991 L 142.30134 128.1622 L 139.91699 124.59652 L 137.53264 121.03085 L 134.60362 118.05532 L 131.67408 115.07979 L 128.67581 113.09697 L 125.67703 111.11414 L 123.4875 110.01963 L 121.29797 108.92564 L 118.725 108.06471 L 116.15203 107.20379 L 112.80081 106.62243 L 109.44908 106.04158 z M 103.45203 110.61185 L 107.10917 110.82372 L 110.76579 111.03508 L 113.98834 111.78955 L 117.21036 112.54403 L 120.2324 113.85248 L 123.25444 115.16092 L 125.87702 116.93549 L 128.49908 118.71058 L 131.26842 121.48612 L 134.03724 124.26166 L 135.94255 127.12505 L 137.84786 129.98844 L 138.92118 132.35677 L 139.99502 134.72459 L 140.95 138.13833 L 141.90498 141.55208 L 141.88534 147.90208 L 141.8657 154.25208 L 140.90142 157.42708 L 139.93662 160.60208 L 138.7491 163.12647 L 137.56157 165.65086 L 135.70174 168.41814 L 133.84242 171.18541 L 131.5237 173.5 L 129.20498 175.8151 L 127.26453 177.26411 L 125.32408 178.71312 L 122.84206 180.11613 L 120.35952 181.51915 L 117.23878 182.62089 L 114.11753 183.72263 L 110.63919 184.24508 L 107.16085 184.76753 L 104.6008 184.736 L 102.04074 184.70396 L 99.218695 184.20425 L 96.396645 183.70403 L 93.994208 182.98469 L 91.59177 182.26484 L 88.34184 180.59982 L 85.091909 178.93481 L 82.806777 177.18091 L 80.521645 175.42649 L 78.721238 173.65864 L 76.920831 171.89079 L 75.090452 169.4713 L 73.260073 167.05181 L 72.041026 164.6318 L 70.822495 162.2118 L 69.946063 159.88429 L 69.070148 157.55678 L 68.492922 154.49341 L 67.916213 151.43003 L 68.089846 145.96163 L 68.263995 140.49374 L 69.22621 137.49496 L 70.188426 134.49669 L 71.322723 132.02708 L 72.457538 129.55746 L 73.956154 127.36224 L 75.455288 125.16703 L 77.929038 122.5181 L 80.402272 119.86968 L 82.7551 118.107 L 85.107412 116.34483 L 88.282412 114.78007 L 91.457412 113.21582 L 93.927028 112.49235 L 96.396645 111.76836 L 99.924078 111.19011 L 103.45203 110.61185 z M 104.15741 111.56579 L 104.05406 114.53512 L 103.95071 117.50445 L 104.13157 117.9747 L 104.31192 118.44496 L 105.21781 118.44496 L 106.1237 118.44496 L 106.02241 115.00538 L 105.92165 111.56579 L 105.03953 111.56579 L 104.15741 111.56579 z M 122.85498 115.97638 L 122.33201 116.06784 L 121.80956 116.15931 L 120.50163 118.27236 L 119.1937 120.38541 L 119.17252 120.93215 L 119.15081 121.47888 L 119.58438 121.91245 L 120.01794 122.34653 L 120.51455 122.24783 L 121.01168 122.14913 L 122.46224 119.41441 L 123.91331 116.67918 L 123.38415 116.32778 L 122.85498 115.97638 z M 87.664878 115.9986 L 87.00342 116.35206 L 86.342478 116.70605 L 86.342478 117.24917 L 86.342478 117.7928 L 87.793553 120.23555 L 89.245144 122.67829 L 89.886448 122.67829 L 90.528269 122.67829 L 90.744794 121.99668 L 90.961318 121.31455 L 89.827537 119.26248 L 88.693756 117.21041 L 88.179059 116.60425 L 87.664878 115.9986 z M 75.233079 127.9064 L 74.702362 128.24074 L 74.171645 128.57509 L 74.063641 129.12286 L 73.955638 129.67115 L 76.356525 131.11912 L 78.757412 132.5671 L 79.463312 132.47356 L 80.168695 132.38003 L 80.168695 131.54339 L 80.168695 130.70674 L 77.701145 129.30683 L 75.233079 127.9064 z M 134.79792 127.96996 L 132.26577 129.59002 L 129.73415 131.21007 L 129.73415 131.50153 L 129.73415 131.79298 L 129.94809 132.35109 L 130.16254 132.90919 L 130.65864 132.90919 L 131.15473 132.90919 L 133.43521 131.4204 L 135.71518 129.93211 L 135.88829 129.47995 L 136.06192 129.02829 L 135.85884 128.49913 L 135.65575 127.96996 L 135.22683 127.96996 L 134.79792 127.96996 z M 140.03171 145.93114 L 137.26805 146.03449 L 134.5044 146.13836 L 134.38244 146.77605 L 134.26048 147.41425 L 134.46099 147.9367 L 134.66149 148.45863 L 137.75381 148.35683 L 140.84665 148.25503 L 140.88644 147.46438 L 140.92623 146.67373 L 140.47871 146.30217 L 140.03171 145.93114 z M 74.920437 145.93527 L 72.0803 146.03656 L 69.24068 146.13836 L 69.118723 146.77605 L 68.996767 147.41425 L 69.191587 147.92275 L 69.386924 148.43124 L 72.353151 148.43124 L 75.319895 148.43124 L 75.764313 147.89536 L 76.209247 147.35947 L 75.564842 146.64737 L 74.920437 145.93527 z M 78.494379 161.13124 L 76.244904 162.73631 L 73.994912 164.3419 L 73.994912 164.9708 L 73.994912 165.5997 L 74.230556 165.83483 L 74.465684 166.06996 L 74.823285 166.06996 L 75.180886 166.06996 L 77.380751 164.63646 L 79.581134 163.20295 L 79.793007 162.65156 L 80.004364 162.10018 L 79.602321 161.61545 L 79.200279 161.13124 L 78.847329 161.13124 L 78.494379 161.13124 z M 130.46433 161.48419 L 130.08761 162.18803 L 129.71089 162.89134 L 132.10403 164.47057 L 134.49665 166.04929 L 135.02581 165.96867 L 135.55498 165.88754 L 135.66247 164.96202 L 135.76995 164.03598 L 133.48844 162.76008 L 131.20692 161.48419 L 130.83589 161.48419 L 130.46433 161.48419 z M 89.212071 171.36266 L 88.527358 172.33211 L 87.842645 173.30208 L 86.87888 175.15519 L 85.914598 177.00779 L 86.126988 177.56125 L 86.339378 178.11419 L 87.118658 178.00101 L 87.898456 177.88836 L 89.217755 175.59496 L 90.537571 173.30208 L 90.556691 172.69695 L 90.575812 172.09233 L 89.893683 171.7275 L 89.212071 171.36266 z M 120.49802 172.06494 L 120.17711 172.26338 L 119.8562 172.46182 L 119.8562 173.16565 L 119.8562 173.87 L 121.29487 175.98822 L 122.73302 178.10643 L 123.49577 177.9974 L 124.25851 177.88836 L 124.37375 177.2853 L 124.48847 176.68275 L 123.07099 174.59554 L 121.65402 172.50833 L 121.07628 172.28663 L 120.49802 172.06494 z M 105.46328 176.23058 L 104.72224 176.46571 L 103.9812 176.70084 L 103.9812 179.47069 L 103.9812 182.24003 L 104.20237 182.81674 L 104.42406 183.39345 L 105.17285 183.28648 L 105.92165 183.18003 L 106.02448 180.03707 L 106.1268 176.89411 L 105.79504 176.56234 L 105.46328 176.23058 z " /></g></svg>
